<?xml version="1.0" encoding="UTF-8" standalone="no"?><!DOCTYPE svg PUBLIC "-//W3C//DTD SVG 1.1//EN" "http://www.w3.org/Graphics/SVG/1.1/DTD/svg11.dtd"><svg width="100%" height="100%" viewBox="0 0 12 12" version="1.1" xmlns="http://www.w3.org/2000/svg" xmlns:xlink="http://www.w3.org/1999/xlink" xml:space="preserve" style="fill-rule:evenodd;clip-rule:evenodd;stroke-linejoin:round;stroke-miterlimit:1.41421;"><path id="Instagram-Icon" d="M10.113,12l-8.263,0c-1.037,0 -1.878,-0.839 -1.878,-1.875l0,-8.25c0,-1.036 0.841,-1.875 1.878,-1.875l8.263,0c1.037,0 1.878,0.839 1.878,1.875l0,8.25c0,1.036 -0.841,1.875 -1.878,1.875Zm-4.132,-8c-1.106,0 -2.003,0.895 -2.003,2c0,1.104 0.897,2 2.003,2c1.107,0 2.003,-0.896 2.003,-2c0,-1.105 -0.896,-2 -2.003,-2Zm4.507,-1.75c0,-0.415 -0.336,-0.75 -0.751,-0.75l-0.501,0c-0.415,0 -0.751,0.335 -0.751,0.75l0,0.5c0,0.414 0.336,0.75 0.751,0.75l0.501,0c0.415,0 0.751,-0.336 0.751,-0.75l0,-0.5Zm0,2.75l-1.164,0c0.096,0.319 0.163,0.65 0.163,1c0,1.933 -1.57,3.5 -3.506,3.5c-1.936,0 -3.505,-1.567 -3.505,-3.5c0,-0.35 0.067,-0.681 0.163,-1l-1.165,0l0,4.75c0,0.414 0.336,0.75 0.751,0.75l7.512,0c0.415,0 0.751,-0.336 0.751,-0.75l0,-4.75Z" style="fill:#fff;"/></svg>