<?xml version="1.0" encoding="UTF-8" standalone="no"?><!DOCTYPE svg PUBLIC "-//W3C//DTD SVG 1.1//EN" "http://www.w3.org/Graphics/SVG/1.1/DTD/svg11.dtd"><svg width="100%" height="100%" viewBox="0 0 171 25" version="1.1" xmlns="http://www.w3.org/2000/svg" xmlns:xlink="http://www.w3.org/1999/xlink" xml:space="preserve" style="fill-rule:evenodd;clip-rule:evenodd;stroke-linejoin:round;stroke-miterlimit:1.41421;"><g><path d="M5.943,9.646l0,-8.638l-5.943,0l0,23.341l5.943,0l0,-8.077l0.198,-0.264l5.977,8.341l7.495,0l-9.212,-12.066l9.245,-11.275l-7.363,0l-6.34,8.638Z" style="fill:#4d0a34;fill-rule:nonzero;"/><path d="M28.759,6.547l10.302,0l0,-5.539l-16.278,0l0,23.341l16.278,0l0,-5.571l-10.302,0l0,-3.495l9.476,0l0,-5.11l-9.476,0l0,-3.626Z" style="fill:#4d0a34;fill-rule:nonzero;"/><path d="M55.768,24.349l0,-9.198l8.189,-14.143l-6.934,0l-4.226,8.572l-4.227,-8.572l-6.868,0l8.156,14.143l0,9.198l5.91,0Z" style="fill:#241f28;fill-rule:nonzero;"/><path d="M73.103,6.613l10.302,0l0,-5.605l-16.278,0l0,23.341l5.976,0l0,-8.044l9.014,0l0,-5.505l-9.014,0l0,-4.187Z" style="fill:#f90012;fill-rule:nonzero;"/><path d="M100.244,24.349l7.363,0l-6.372,-8.011c2.839,-0.89 4.589,-3.33 4.589,-7.648c-0.132,-5.473 -3.863,-7.682 -8.683,-7.682l-9.345,0l0,23.341l5.977,0l0,-7.418l1.056,0l5.415,7.418Zm-6.471,-12.495l0,-5.34l3.467,0c3.731,0 3.731,5.34 0,5.34l-3.467,0Z" style="fill:#f90012;fill-rule:nonzero;"/><path d="M116.754,6.547l10.301,0l0,-5.539l-16.278,0l0,23.341l16.278,0l0,-5.571l-10.301,0l0,-3.495l9.476,0l0,-5.11l-9.476,0l0,-3.626Z" style="fill:#f90012;fill-rule:nonzero;"/><path d="M130.72,20.459c2.18,2.802 5.151,4.22 7.958,4.22c4.292,0 9.047,-2.473 9.245,-6.989c0.264,-5.737 -3.896,-7.187 -8.056,-7.945c-1.816,-0.396 -3.038,-1.055 -3.104,-2.176c0.099,-2.704 4.292,-2.802 6.736,-0.198l3.863,-2.967c-2.411,-2.934 -5.151,-3.725 -7.991,-3.725c-4.292,0 -8.452,2.406 -8.452,6.989c0,4.45 3.433,6.824 7.198,7.417c1.915,0.264 4.061,1.022 3.995,2.341c-0.165,2.505 -5.316,2.374 -7.66,-0.462l-3.732,3.495Z" style="fill:#f90012;fill-rule:nonzero;"/><path d="M158.06,15.547l6.736,0l0,8.802l5.943,0l0,-23.341l-5.943,0l0,8.835l-6.736,0l0,-8.835l-5.944,0l0,23.341l5.944,0l0,-8.802Z" style="fill:#f90012;fill-rule:nonzero;"/></g></svg>