<?xml version="1.0" encoding="UTF-8" standalone="no"?>
<!DOCTYPE svg PUBLIC "-//W3C//DTD SVG 1.1//EN" "http://www.w3.org/Graphics/SVG/1.1/DTD/svg11.dtd">
<svg width="100%" height="100%" viewBox="0 0 938 938" version="1.1" xmlns="http://www.w3.org/2000/svg" xmlns:xlink="http://www.w3.org/1999/xlink" xml:space="preserve" style="fill-rule:evenodd;clip-rule:evenodd;stroke-linejoin:round;stroke-miterlimit:1.41421;">
    <g transform="matrix(3.125,0,0,3.125,-1533.64,-362.5)">
        <g transform="matrix(2.79709,0,0,2.08333,-5335.92,0)">
            <g id="Emblem" transform="matrix(0.0582904,0,0,0.0782609,2040.22,-0.198261)">
                <circle cx="1656" cy="1634" r="920" style="fill:rgb(36,31,40);"/>
                <clipPath id="_clip1">
                    <circle cx="1656" cy="1634" r="920"/>
                </clipPath>
                <g clip-path="url(#_clip1)">
                    <g id="K5-Key" transform="matrix(1.21243,0,0,1.21243,1035.24,960.063)">
                        <g transform="matrix(1.12976,-0.000244159,0.000244159,1.12976,-110.97,-8.20744)">
                            <path d="M758.024,161.068L758.879,161.076L759.731,161.09L760.583,161.109L761.433,161.133L762.282,161.163L763.13,161.198L763.976,161.238L764.822,161.283L765.665,161.334L766.507,161.39L767.348,161.452L768.188,161.518L769.026,161.59L769.863,161.667L770.698,161.75L771.531,161.837L772.364,161.93L773.194,162.027L774.023,162.13L774.851,162.238L775.677,162.351L776.501,162.469L777.324,162.593L778.145,162.721L778.965,162.854L779.783,162.993L780.599,163.136L781.413,163.284L782.226,163.437L783.038,163.596L783.847,163.759L784.654,163.927L785.46,164.1L786.264,164.278L787.066,164.46L787.866,164.648L788.664,164.84L789.461,165.038L790.256,165.24L791.048,165.446L791.839,165.658L792.628,165.874L793.415,166.095L794.2,166.321L794.983,166.552L795.764,166.787L796.543,167.027L797.32,167.271L798.095,167.52L798.867,167.774L799.638,168.032L800.406,168.295L801.173,168.563L801.937,168.835L802.699,169.112L803.459,169.393L804.217,169.678L804.972,169.968L805.726,170.263L806.477,170.562L807.226,170.866L807.972,171.173L808.715,171.486L809.458,171.802L810.198,172.124L810.935,172.449L811.669,172.778L812.402,173.113L813.132,173.451L813.859,173.794L814.585,174.141L815.308,174.492L816.028,174.847L816.746,175.207L817.461,175.571L818.174,175.939L818.884,176.311L819.592,176.687L820.297,177.068L821,177.453L821.7,177.841L822.397,178.234L823.092,178.631L823.784,179.032L824.473,179.437L825.16,179.846L825.845,180.259L826.526,180.676L827.205,181.097L827.88,181.522L828.554,181.951L829.225,182.384L829.892,182.821L830.557,183.261L831.219,183.706L831.877,184.154L832.534,184.607L833.188,185.063L833.839,185.523L834.486,185.986L835.131,186.453L835.773,186.925L836.412,187.4L837.048,187.879L837.681,188.361L838.311,188.847L838.938,189.337L839.561,189.83L840.183,190.328L840.8,190.829L841.415,191.333L842.026,191.84L842.635,192.352L843.241,192.868L843.843,193.386L844.442,193.908L845.038,194.434L845.631,194.963L846.221,195.496L846.807,196.032L847.39,196.572L847.97,197.115L848.547,197.661L849.121,198.212L849.691,198.765L850.257,199.321L850.82,199.882L851.381,200.445L851.937,201.012L852.491,201.582L853.041,202.155L853.587,202.732L854.13,203.312L854.67,203.895L855.206,204.481L855.739,205.071L856.268,205.664L856.794,206.26L857.316,206.859L857.835,207.461L858.35,208.067L858.861,208.675L859.37,209.287L859.874,209.902L860.374,210.519L860.872,211.14L861.365,211.765L861.855,212.392L862.341,213.022L862.824,213.655L863.302,214.29L863.777,214.93L864.248,215.571L864.715,216.215L865.179,216.863L865.639,217.514L866.095,218.168L866.548,218.825L866.996,219.484L867.44,220.145L867.881,220.81L868.318,221.478L868.751,222.149L869.18,222.821L869.605,223.497L870.026,224.177L870.443,224.857L870.856,225.541L871.265,226.229L871.67,226.919L872.071,227.61L872.468,228.305L872.861,229.003L873.249,229.702L873.634,230.405L874.015,231.11L874.391,231.818L874.763,232.528L875.132,233.242L875.495,233.956L875.855,234.674L876.21,235.395L876.562,236.117L876.909,236.844L877.251,237.57L877.59,238.3L877.924,239.033L878.253,239.767L878.579,240.505L878.899,241.243L879.216,241.985L879.529,242.73L879.837,243.478L880.14,244.226L880.439,244.977L880.734,245.73L881.024,246.485L881.309,247.243L881.591,248.003L881.867,248.765L882.14,249.53L882.407,250.296L882.67,251.064L882.928,251.835L883.182,252.608L883.431,253.382L883.675,254.159L883.915,254.938L884.15,255.719L884.381,256.502L884.607,257.287L884.828,258.074L885.044,258.864L885.256,259.654L885.463,260.447L885.664,261.241L885.862,262.038L886.054,262.836L886.242,263.636L886.424,264.438L886.602,265.243L886.775,266.049L886.943,266.855L887.106,267.665L887.265,268.476L887.418,269.288L887.566,270.104L887.71,270.919L887.848,271.738L887.981,272.558L888.109,273.378L888.233,274.201L888.351,275.025L888.464,275.851L888.572,276.678L888.675,277.508L888.772,278.339L888.865,279.171L888.952,280.004L889.035,280.839L889.112,281.677L889.184,282.515L889.25,283.354L889.312,284.195L889.368,285.036L889.419,285.881L889.464,286.726L889.505,287.573L889.539,288.42L889.569,289.268L889.594,290.119L889.612,290.972L889.626,291.823L889.634,292.678L889.637,293.522L889.637,705.267L889.634,706.111L889.626,706.965L889.612,707.818L889.593,708.669L889.569,709.52L889.539,710.369L889.505,711.216L889.464,712.062L889.419,712.909L889.368,713.752L889.312,714.594L889.25,715.435L889.184,716.273L889.112,717.111L889.035,717.949L888.953,718.785L888.865,719.619L888.772,720.45L888.675,721.28L888.572,722.11L888.464,722.937L888.351,723.763L888.233,724.589L888.109,725.411L887.981,726.232L887.848,727.051L887.71,727.869L887.566,728.686L887.418,729.5L887.265,730.313L887.107,731.123L886.943,731.934L886.775,732.74L886.603,733.546L886.424,734.351L886.242,735.152L886.054,735.952L885.862,736.752L885.664,737.548L885.463,738.341L885.256,739.134L885.044,739.926L884.828,740.715L884.607,741.502L884.381,742.287L884.15,743.069L883.915,743.85L883.676,744.629L883.431,745.406L883.182,746.181L882.928,746.954L882.67,747.724L882.407,748.493L882.139,749.26L881.867,750.023L881.591,750.785L881.31,751.545L881.024,752.303L880.734,753.059L880.439,753.813L880.14,754.563L879.837,755.311L879.529,756.059L879.216,756.803L878.9,757.544L878.579,758.284L878.253,759.021L877.924,759.756L877.59,760.488L877.251,761.218L876.908,761.946L876.561,762.672L876.21,763.394L875.855,764.114L875.495,764.831L875.132,765.547L874.763,766.261L874.391,766.97L874.015,767.678L873.634,768.384L873.249,769.086L872.861,769.786L872.468,770.484L872.071,771.179L871.67,771.87L871.265,772.56L870.856,773.247L870.443,773.931L870.026,774.613L869.605,775.291L869.18,775.966L868.751,776.64L868.318,777.312L867.881,777.979L867.441,778.643L866.996,779.305L866.548,779.964L866.096,780.621L865.639,781.274L865.179,781.925L864.716,782.572L864.248,783.218L863.777,783.86L863.302,784.498L862.823,785.134L862.341,785.767L861.855,786.397L861.365,787.024L860.872,787.648L860.374,788.269L859.874,788.887L859.37,789.501L858.861,790.114L858.35,790.722L857.835,791.327L857.316,791.93L856.794,792.529L856.268,793.125L855.739,793.718L855.207,794.307L854.67,794.894L854.13,795.477L853.587,796.057L853.041,796.633L852.491,797.207L851.937,797.777L851.381,798.343L850.821,798.907L850.257,799.468L849.69,800.024L849.12,800.577L848.547,801.127L847.97,801.673L847.39,802.217L846.807,802.756L846.221,803.293L845.631,803.826L845.039,804.354L844.443,804.88L843.843,805.403L843.241,805.921L842.635,806.436L842.027,806.948L841.415,807.456L840.8,807.961L840.182,808.461L839.562,808.958L838.937,809.452L838.31,809.942L837.681,810.427L837.048,810.91L836.411,811.389L835.773,811.863L835.131,812.335L834.486,812.802L833.839,813.266L833.188,813.726L832.534,814.182L831.878,814.634L831.219,815.083L830.556,815.528L829.892,815.968L829.224,816.404L828.554,816.837L827.881,817.266L827.205,817.691L826.526,818.113L825.844,818.529L825.16,818.942L824.474,819.351L823.784,819.756L823.092,820.157L822.397,820.554L821.7,820.947L821,821.336L820.297,821.721L819.591,822.102L818.884,822.478L818.174,822.85L817.461,823.218L816.745,823.582L816.028,823.941L815.307,824.297L814.585,824.648L813.86,824.995L813.132,825.338L812.402,825.676L811.669,826.01L810.935,826.34L810.197,826.665L809.457,826.987L808.716,827.303L807.972,827.615L807.225,827.923L806.477,828.227L805.726,828.526L804.972,828.82L804.217,829.11L803.459,829.396L802.699,829.677L801.938,829.954L801.173,830.226L800.406,830.493L799.638,830.756L798.867,831.015L798.094,831.268L797.32,831.517L796.543,831.762L795.764,832.002L794.984,832.237L794.2,832.468L793.415,832.693L792.628,832.914L791.84,833.131L791.049,833.342L790.256,833.549L789.461,833.751L788.664,833.948L787.867,834.141L787.066,834.328L786.264,834.511L785.459,834.689L784.654,834.862L783.847,835.03L783.037,835.193L782.226,835.351L781.413,835.504L780.599,835.653L779.783,835.796L778.965,835.934L778.145,836.068L777.324,836.196L776.501,836.319L775.677,836.437L774.851,836.55L774.023,836.658L773.195,836.761L772.364,836.859L771.531,836.952L770.697,837.039L769.862,837.121L769.026,837.198L768.187,837.27L767.349,837.337L766.507,837.398L765.665,837.454L764.822,837.505L763.977,837.551L763.13,837.591L762.282,837.626L761.433,837.656L760.583,837.68L759.731,837.699L758.879,837.712L758.025,837.721L757.181,837.723L345.435,837.723L344.591,837.721L343.737,837.712L342.885,837.699L342.033,837.68L341.183,837.656L340.333,837.626L339.485,837.591L338.64,837.551L337.794,837.505L336.95,837.454L336.108,837.398L335.267,837.337L334.427,837.27L333.59,837.198L332.754,837.121L331.918,837.039L331.084,836.952L330.252,836.859L329.421,836.761L328.592,836.658L327.764,836.55L326.938,836.437L326.115,836.319L325.292,836.196L324.47,836.068L323.651,835.934L322.833,835.796L322.017,835.653L321.202,835.504L320.39,835.351L319.578,835.193L318.769,835.03L317.962,834.862L317.156,834.689L316.352,834.511L315.549,834.328L314.75,834.141L313.951,833.948L313.155,833.751L312.36,833.549L311.567,833.342L310.776,833.131L309.988,832.914L309.201,832.693L308.416,832.468L307.632,832.237L306.851,832.002L306.073,831.762L305.296,831.518L304.521,831.268L303.748,831.015L302.978,830.756L302.209,830.493L301.443,830.226L300.678,829.954L299.916,829.677L299.156,829.396L298.399,829.11L297.644,828.821L296.89,828.526L296.138,828.226L295.39,827.923L294.644,827.615L293.899,827.303L293.158,826.986L292.419,826.665L291.681,826.34L290.946,826.01L290.214,825.676L289.484,825.338L288.756,824.995L288.031,824.648L287.308,824.297L286.588,823.941L285.87,823.582L285.155,823.218L284.442,822.85L283.732,822.478L283.024,822.101L282.318,821.721L281.616,821.336L280.916,820.947L280.218,820.554L279.523,820.157L278.832,819.756L278.143,819.352L277.455,818.943L276.771,818.529L276.09,818.113L275.411,817.691L274.735,817.266L274.062,816.837L273.391,816.404L272.724,815.968L272.059,815.527L271.397,815.083L270.738,814.634L270.082,814.182L269.428,813.726L268.777,813.266L268.13,812.802L267.485,812.335L266.843,811.864L266.204,811.389L265.568,810.91L264.935,810.427L264.305,809.942L263.678,809.452L263.054,808.958L262.434,808.461L261.816,807.961L261.2,807.456L260.589,806.948L259.981,806.437L259.374,805.921L258.772,805.402L258.174,804.881L257.578,804.355L256.985,803.826L256.395,803.293L255.808,802.756L255.225,802.217L254.646,801.674L254.069,801.127L253.495,800.577L252.925,800.023L252.359,799.467L251.795,798.907L251.235,798.343L250.678,797.777L250.125,797.207L249.575,796.633L249.029,796.057L248.486,795.477L247.946,794.894L247.41,794.308L246.877,793.718L246.347,793.125L245.822,792.529L245.299,791.929L244.781,791.327L244.266,790.722L243.754,790.114L243.246,789.501L242.742,788.887L242.241,788.269L241.744,787.648L241.25,787.024L240.761,786.397L240.275,785.767L239.792,785.134L239.313,784.498L238.839,783.86L238.367,783.218L237.9,782.572L237.436,781.925L236.976,781.274L236.52,780.621L236.067,779.964L235.619,779.305L235.176,778.644L234.734,777.979L234.297,777.31L233.865,776.641L233.436,775.967L233.01,775.29L232.59,774.613L232.173,773.931L231.759,773.246L231.351,772.56L230.945,771.87L230.545,771.179L230.148,770.484L229.755,769.786L229.366,769.086L228.981,768.383L228.601,767.678L228.225,766.971L227.852,766.26L227.484,765.547L227.121,764.832L226.761,764.114L226.405,763.394L226.054,762.671L225.707,761.945L225.365,761.219L225.026,760.489L224.692,759.755L224.362,759.02L224.037,758.284L223.716,757.545L223.399,756.803L223.087,756.058L222.779,755.312L222.475,754.563L222.176,753.811L221.882,753.058L221.592,752.304L221.306,751.546L221.025,750.786L220.748,750.024L220.476,749.259L220.209,748.493L219.946,747.725L219.688,746.954L219.434,746.182L219.185,745.407L218.94,744.629L218.7,743.851L218.465,743.07L218.235,742.286L218.009,741.502L217.788,740.714L217.571,739.925L217.36,739.135L217.153,738.342L216.951,737.547L216.754,736.751L216.562,735.953L216.374,735.153L216.191,734.35L216.013,733.546L215.841,732.741L215.672,731.933L215.509,731.123L215.351,730.313L215.198,729.5L215.049,728.685L214.906,727.869L214.768,727.051L214.634,726.231L214.506,725.411L214.383,724.588L214.265,723.764L214.152,722.938L214.044,722.11L213.941,721.281L213.843,720.449L213.751,719.618L213.663,718.785L213.581,717.95L213.504,717.112L213.432,716.274L213.365,715.435L213.304,714.594L213.248,713.752L213.197,712.908L213.151,712.063L213.111,711.216L213.076,710.368L213.047,709.52L213.022,708.669L213.003,707.818L212.99,706.966L212.982,706.111L212.979,705.268L212.979,293.521L212.982,292.677L212.99,291.823L213.003,290.971L213.022,290.12L213.046,289.269L213.076,288.42L213.111,287.573L213.151,286.726L213.197,285.881L213.248,285.037L213.304,284.194L213.365,283.354L213.432,282.515L213.504,281.676L213.581,280.839L213.663,280.004L213.751,279.17L213.843,278.339L213.941,277.509L214.044,276.679L214.152,275.851L214.265,275.026L214.383,274.2L214.506,273.377L214.635,272.557L214.768,271.738L214.906,270.92L215.049,270.103L215.198,269.289L215.351,268.476L215.509,267.665L215.672,266.856L215.84,266.048L216.013,265.242L216.191,264.438L216.374,263.636L216.561,262.836L216.754,262.037L216.951,261.241L217.153,260.447L217.36,259.654L217.571,258.863L217.788,258.074L218.009,257.286L218.235,256.502L218.465,255.719L218.7,254.939L218.94,254.16L219.185,253.383L219.434,252.608L219.688,251.835L219.946,251.065L220.209,250.295L220.476,249.529L220.748,248.765L221.025,248.002L221.306,247.244L221.592,246.486L221.882,245.73L222.177,244.976L222.476,244.226L222.779,243.477L223.087,242.73L223.399,241.986L223.716,241.244L224.037,240.505L224.362,239.768L224.692,239.033L225.026,238.3L225.364,237.57L225.707,236.842L226.054,236.117L226.405,235.395L226.761,234.674L227.121,233.956L227.484,233.241L227.853,232.528L228.224,231.818L228.601,231.11L228.982,230.405L229.366,229.703L229.755,229.003L230.147,228.306L230.545,227.61L230.946,226.917L231.351,226.228L231.76,225.542L232.172,224.858L232.59,224.176L233.011,223.497L233.435,222.822L233.864,222.149L234.297,221.478L234.734,220.81L235.176,220.145L235.619,219.484L236.067,218.825L236.52,218.168L236.976,217.514L237.436,216.863L237.9,216.216L238.367,215.571L238.839,214.929L239.314,214.29L239.792,213.655L240.275,213.022L240.761,212.392L241.25,211.765L241.744,211.14L242.241,210.519L242.742,209.902L243.246,209.287L243.754,208.675L244.266,208.067L244.781,207.461L245.299,206.859L245.822,206.26L246.348,205.663L246.877,205.071L247.409,204.482L247.946,203.895L248.486,203.311L249.029,202.731L249.575,202.156L250.125,201.582L250.678,201.012L251.235,200.445L251.795,199.882L252.359,199.321L252.926,198.765L253.495,198.212L254.069,197.662L254.646,197.115L255.225,196.572L255.808,196.033L256.395,195.496L256.985,194.963L257.578,194.434L258.173,193.909L258.772,193.386L259.375,192.867L259.98,192.352L260.589,191.84L261.2,191.333L261.815,190.828L262.433,190.328L263.054,189.831L263.678,189.337L264.305,188.847L264.935,188.361L265.569,187.878L266.204,187.4L266.843,186.925L267.485,186.454L268.13,185.986L268.777,185.523L269.428,185.063L270.081,184.607L270.738,184.154L271.397,183.706L272.059,183.261L272.724,182.821L273.391,182.384L274.062,181.951L274.735,181.522L275.411,181.097L276.09,180.676L276.771,180.259L277.455,179.847L278.142,179.437L278.832,179.032L279.524,178.631L280.219,178.234L280.916,177.841L281.616,177.453L282.319,177.068L283.024,176.687L283.732,176.311L284.442,175.939L285.155,175.571L285.87,175.207L286.588,174.847L287.308,174.492L288.031,174.141L288.756,173.794L289.484,173.451L290.214,173.113L290.946,172.779L291.681,172.449L292.418,172.123L293.158,171.802L293.9,171.486L294.644,171.173L295.39,170.865L296.139,170.562L296.89,170.263L297.643,169.968L298.399,169.678L299.157,169.393L299.916,169.112L300.679,168.835L301.443,168.563L302.209,168.295L302.978,168.032L303.748,167.774L304.521,167.52L305.296,167.271L306.073,167.027L306.852,166.787L307.633,166.552L308.416,166.321L309.2,166.095L309.987,165.874L310.777,165.658L311.567,165.446L312.36,165.24L313.154,165.038L313.951,164.84L314.749,164.648L315.55,164.46L316.352,164.278L317.156,164.1L317.961,163.927L318.769,163.759L319.578,163.596L320.39,163.438L321.202,163.284L322.017,163.136L322.833,162.993L323.651,162.854L324.47,162.721L325.292,162.593L326.115,162.47L326.939,162.351L327.764,162.238L328.592,162.13L329.422,162.027L330.252,161.93L331.084,161.837L331.918,161.75L332.753,161.667L333.59,161.59L334.428,161.519L335.267,161.452L336.108,161.39L336.95,161.334L337.794,161.283L338.64,161.238L339.486,161.198L340.333,161.163L341.183,161.133L342.033,161.109L342.884,161.09L343.737,161.076L344.591,161.068L345.435,161.066L757.181,161.066L758.024,161.068ZM345.446,168.366L344.638,168.369L343.83,168.376L343.023,168.389L342.218,168.407L341.414,168.43L340.611,168.458L339.81,168.491L339.009,168.529L338.211,168.572L337.413,168.62L336.617,168.673L335.822,168.731L335.028,168.794L334.236,168.862L333.446,168.935L332.656,169.013L331.869,169.095L331.082,169.183L330.297,169.275L329.514,169.372L328.732,169.474L327.952,169.581L327.173,169.693L326.395,169.809L325.62,169.931L324.845,170.056L324.073,170.187L323.302,170.323L322.532,170.463L321.765,170.607L320.999,170.757L320.234,170.911L319.471,171.07L318.71,171.233L317.951,171.401L317.194,171.574L316.438,171.751L315.684,171.932L314.931,172.119L314.181,172.31L313.432,172.505L312.685,172.705L311.94,172.909L311.197,173.118L310.455,173.331L309.716,173.549L308.978,173.771L308.243,173.997L307.509,174.228L306.777,174.463L306.048,174.703L305.32,174.947L304.594,175.195L303.87,175.448L303.148,175.705L302.428,175.966L301.711,176.232L300.995,176.502L300.281,176.776L299.57,177.054L298.861,177.336L298.153,177.623L297.448,177.914L296.745,178.209L296.045,178.508L295.346,178.811L294.65,179.119L293.956,179.43L293.264,179.746L292.574,180.065L291.887,180.389L291.202,180.717L290.519,181.049L289.838,181.384L289.16,181.724L288.484,182.068L287.811,182.416L287.14,182.767L286.471,183.123L285.805,183.482L285.141,183.846L284.48,184.213L283.821,184.584L283.164,184.959L282.51,185.338L281.859,185.721L281.21,186.107L280.563,186.498L279.92,186.892L279.278,187.29L278.639,187.691L278.003,188.096L277.37,188.506L276.739,188.918L276.11,189.335L275.485,189.755L274.862,190.179L274.242,190.606L273.624,191.037L273.009,191.472L272.397,191.91L271.787,192.352L271.181,192.797L270.577,193.246L269.976,193.698L269.378,194.154L268.782,194.614L268.19,195.077L267.6,195.543L267.013,196.013L266.429,196.486L265.848,196.963L265.27,197.443L264.694,197.927L264.122,198.414L263.553,198.904L262.986,199.398L262.423,199.895L261.863,200.395L261.305,200.898L260.751,201.405L260.2,201.915L259.652,202.429L259.107,202.945L258.565,203.465L258.026,203.988L257.49,204.515L256.957,205.044L256.428,205.577L255.902,206.112L255.379,206.651L254.859,207.193L254.342,207.738L253.829,208.286L253.319,208.838L252.812,209.392L252.308,209.949L251.808,210.51L251.311,211.073L250.817,211.639L250.327,212.209L249.84,212.781L249.357,213.356L248.877,213.934L248.4,214.516L247.926,215.099L247.457,215.686L246.99,216.276L246.527,216.869L246.068,217.464L245.612,218.062L245.159,218.663L244.71,219.267L244.265,219.874L243.823,220.483L243.385,221.096L242.95,221.71L242.519,222.328L242.092,222.948L241.668,223.571L241.248,224.197L240.832,224.825L240.419,225.456L240.01,226.09L239.605,226.726L239.203,227.365L238.805,228.006L238.411,228.65L238.021,229.296L237.634,229.945L237.252,230.597L236.873,231.251L236.498,231.907L236.127,232.566L235.759,233.228L235.396,233.891L235.036,234.558L234.681,235.226L234.329,235.897L233.981,236.571L233.638,237.247L233.298,237.925L232.962,238.605L232.63,239.288L232.302,239.973L231.979,240.661L231.659,241.35L231.344,242.042L231.032,242.736L230.725,243.433L230.421,244.131L230.122,244.832L229.827,245.535L229.536,246.24L229.25,246.947L228.967,247.656L228.689,248.368L228.415,249.082L228.145,249.797L227.88,250.515L227.619,251.235L227.362,251.957L227.109,252.68L226.861,253.406L226.617,254.134L226.377,254.864L226.142,255.596L225.911,256.329L225.684,257.065L225.462,257.803L225.244,258.542L225.031,259.283L224.822,260.027L224.618,260.772L224.418,261.519L224.223,262.267L224.032,263.018L223.846,263.77L223.664,264.524L223.487,265.28L223.314,266.038L223.146,266.797L222.983,267.558L222.824,268.321L222.67,269.085L222.521,269.851L222.376,270.619L222.236,271.388L222.101,272.159L221.97,272.932L221.844,273.706L221.723,274.482L221.606,275.259L221.495,276.038L221.388,276.819L221.286,277.601L221.189,278.384L221.096,279.169L221.009,279.955L220.926,280.743L220.849,281.532L220.776,282.323L220.708,283.115L220.645,283.908L220.587,284.703L220.534,285.5L220.486,286.297L220.443,287.096L220.404,287.896L220.371,288.698L220.343,289.5L220.32,290.304L220.303,291.11L220.29,291.916L220.282,292.724L220.28,293.533L220.28,705.256L220.282,706.065L220.29,706.872L220.303,707.679L220.32,708.484L220.343,709.288L220.371,710.091L220.404,710.893L220.443,711.693L220.486,712.492L220.534,713.289L220.587,714.085L220.645,714.88L220.708,715.674L220.776,716.466L220.849,717.256L220.926,718.046L221.009,718.833L221.096,719.62L221.189,720.405L221.286,721.188L221.388,721.97L221.495,722.751L221.606,723.529L221.723,724.307L221.844,725.082L221.97,725.857L222.101,726.629L222.236,727.4L222.376,728.17L222.521,728.937L222.67,729.704L222.824,730.468L222.983,731.231L223.146,731.992L223.314,732.751L223.487,733.509L223.664,734.264L223.846,735.019L224.032,735.771L224.223,736.521L224.418,737.27L224.618,738.017L224.822,738.762L225.031,739.505L225.244,740.247L225.462,740.986L225.684,741.724L225.911,742.459L226.142,743.193L226.377,743.925L226.617,744.655L226.861,745.382L227.109,746.108L227.362,746.832L227.619,747.554L227.88,748.274L228.145,748.991L228.415,749.707L228.689,750.421L228.967,751.132L229.25,751.842L229.536,752.549L229.827,753.254L230.122,753.957L230.421,754.658L230.725,755.356L231.032,756.052L231.344,756.747L231.659,757.438L231.979,758.128L232.302,758.815L232.63,759.501L232.962,760.183L233.298,760.864L233.638,761.542L233.981,762.218L234.329,762.891L234.681,763.562L235.036,764.231L235.396,764.897L235.759,765.561L236.127,766.222L236.498,766.881L236.873,767.538L237.252,768.192L237.634,768.843L238.021,769.492L238.411,770.139L238.805,770.783L239.203,771.424L239.605,772.063L240.01,772.699L240.419,773.332L240.832,773.963L241.248,774.592L241.668,775.217L242.092,775.84L242.519,776.461L242.95,777.078L243.385,777.693L243.823,778.305L244.265,778.915L244.71,779.521L245.159,780.125L245.612,780.726L246.068,781.325L246.527,781.92L246.99,782.513L247.457,783.102L247.926,783.689L248.4,784.273L248.877,784.854L249.357,785.432L249.84,786.008L250.327,786.58L250.817,787.149L251.311,787.716L251.808,788.279L252.308,788.839L252.812,789.397L253.319,789.951L253.829,790.502L254.342,791.05L254.859,791.596L255.379,792.138L255.902,792.676L256.428,793.212L256.957,793.745L257.49,794.274L258.026,794.8L258.565,795.323L259.107,795.843L259.652,796.36L260.2,796.873L260.751,797.383L261.305,797.89L261.863,798.394L262.423,798.894L262.986,799.391L263.553,799.885L264.122,800.375L264.694,800.862L265.27,801.345L265.848,801.826L266.429,802.302L267.013,802.776L267.6,803.246L268.19,803.712L268.782,804.175L269.378,804.634L269.976,805.09L270.577,805.543L271.181,805.992L271.787,806.437L272.397,806.879L273.009,807.317L273.624,807.752L274.242,808.183L274.862,808.61L275.485,809.034L276.11,809.454L276.739,809.87L277.37,810.283L278.003,810.692L278.639,811.098L279.278,811.499L279.92,811.897L280.563,812.291L281.21,812.681L281.859,813.068L282.51,813.451L283.164,813.829L283.821,814.204L284.48,814.576L285.141,814.943L285.805,815.306L286.471,815.666L287.14,816.021L287.811,816.373L288.484,816.721L289.16,817.065L289.838,817.404L290.519,817.74L291.202,818.072L291.887,818.4L292.574,818.723L293.264,819.043L293.956,819.359L294.65,819.67L295.346,819.977L296.045,820.281L296.745,820.58L297.448,820.875L298.153,821.166L298.861,821.452L299.57,821.735L300.281,822.013L300.995,822.287L301.711,822.557L302.428,822.822L303.148,823.084L303.87,823.341L304.594,823.593L305.32,823.842L306.048,824.086L306.777,824.325L307.509,824.56L308.243,824.791L308.978,825.018L309.716,825.24L310.455,825.458L311.197,825.671L311.94,825.88L312.685,826.084L313.432,826.284L314.181,826.479L314.931,826.67L315.684,826.856L316.438,827.038L317.194,827.215L317.951,827.388L318.71,827.556L319.471,827.719L320.234,827.878L320.999,828.032L321.765,828.181L322.532,828.326L323.302,828.466L324.073,828.602L324.845,828.732L325.62,828.858L326.395,828.979L327.173,829.096L327.952,829.207L328.732,829.314L329.514,829.416L330.297,829.513L331.082,829.606L331.869,829.693L332.656,829.776L333.446,829.854L334.236,829.926L335.028,829.994L335.822,830.057L336.617,830.115L337.413,830.168L338.211,830.217L339.009,830.26L339.81,830.298L340.611,830.331L341.414,830.359L342.218,830.382L343.023,830.4L343.83,830.412L344.638,830.42L345.446,830.423L757.169,830.423L757.978,830.42L758.786,830.412L759.592,830.4L760.398,830.382L761.202,830.359L762.005,830.331L762.806,830.298L763.606,830.26L764.405,830.217L765.203,830.168L765.999,830.115L766.794,830.057L767.587,829.994L768.379,829.926L769.17,829.854L769.959,829.776L770.747,829.693L771.533,829.606L772.318,829.513L773.102,829.416L773.884,829.314L774.664,829.207L775.443,829.096L776.22,828.979L776.996,828.858L777.77,828.732L778.543,828.602L779.314,828.466L780.083,828.326L780.851,828.181L781.617,828.032L782.381,827.878L783.144,827.719L783.905,827.556L784.665,827.388L785.422,827.215L786.178,827.038L786.932,826.856L787.684,826.67L788.435,826.479L789.184,826.284L789.931,826.084L790.676,825.88L791.419,825.671L792.16,825.458L792.9,825.24L793.637,825.018L794.373,824.791L795.107,824.56L795.838,824.325L796.568,824.086L797.296,823.842L798.022,823.593L798.746,823.341L799.467,823.084L800.187,822.822L800.905,822.557L801.621,822.287L802.334,822.013L803.046,821.735L803.755,821.452L804.462,821.166L805.167,820.875L805.87,820.58L806.571,820.281L807.27,819.977L807.966,819.67L808.66,819.359L809.352,819.043L810.042,818.723L810.729,818.4L811.414,818.072L812.097,817.74L812.777,817.404L813.455,817.065L814.131,816.721L814.805,816.373L815.476,816.021L816.144,815.666L816.811,815.306L817.475,814.943L818.136,814.576L818.795,814.204L819.451,813.829L820.105,813.451L820.757,813.068L821.406,812.681L822.052,812.291L822.696,811.897L823.337,811.499L823.976,811.098L824.612,810.692L825.246,810.283L825.877,809.87L826.505,809.454L827.131,809.034L827.754,808.61L828.374,808.183L828.992,807.752L829.607,807.317L830.219,806.879L830.828,806.437L831.435,805.992L832.039,805.543L832.64,805.09L833.238,804.634L833.833,804.175L834.426,803.712L835.016,803.246L835.603,802.776L836.187,802.302L836.768,801.826L837.346,801.345L837.921,800.862L838.493,800.375L839.063,799.885L839.629,799.391L840.193,798.894L840.753,798.394L841.31,797.89L841.865,797.383L842.416,796.873L842.964,796.36L843.509,795.843L844.051,795.323L844.59,794.8L845.126,794.274L845.658,793.745L846.188,793.212L846.714,792.676L847.237,792.138L847.757,791.596L848.273,791.05L848.787,790.502L849.297,789.951L849.804,789.397L850.307,788.839L850.808,788.279L851.305,787.716L851.798,787.149L852.289,786.58L852.775,786.008L853.259,785.432L853.739,784.854L854.216,784.273L854.689,783.689L855.159,783.102L855.625,782.513L856.088,781.92L856.548,781.325L857.004,780.726L857.456,780.125L857.905,779.521L858.351,778.915L858.792,778.305L859.231,777.693L859.665,777.078L860.096,776.461L860.524,775.84L860.947,775.217L861.367,774.592L861.784,773.963L862.197,773.332L862.606,772.699L863.011,772.063L863.413,771.424L863.81,770.783L864.205,770.139L864.595,769.492L864.981,768.843L865.364,768.192L865.743,767.538L866.118,766.881L866.489,766.222L866.856,765.561L867.22,764.897L867.579,764.231L867.935,763.562L868.287,762.891L868.634,762.218L868.978,761.542L869.318,760.864L869.654,760.183L869.985,759.501L870.313,758.815L870.637,758.128L870.956,757.438L871.272,756.747L871.584,756.052L871.891,755.356L872.194,754.658L872.493,753.957L872.788,753.254L873.079,752.549L873.366,751.842L873.648,751.132L873.927,750.421L874.201,749.707L874.47,748.991L874.736,748.274L874.997,747.554L875.254,746.832L875.507,746.108L875.755,745.382L875.999,744.655L876.239,743.925L876.474,743.193L876.705,742.459L876.931,741.724L877.154,740.986L877.371,740.247L877.584,739.505L877.793,738.762L877.998,738.017L878.197,737.27L878.393,736.521L878.583,735.771L878.77,735.019L878.951,734.264L879.129,733.509L879.301,732.751L879.469,731.992L879.633,731.231L879.791,730.468L879.945,729.704L880.095,728.937L880.24,728.17L880.38,727.4L880.515,726.629L880.646,725.857L880.772,725.082L880.893,724.307L881.009,723.529L881.121,722.751L881.228,721.97L881.33,721.188L881.427,720.405L881.519,719.62L881.607,718.833L881.689,718.046L881.767,717.256L881.84,716.466L881.908,715.674L881.971,714.88L882.029,714.085L882.082,713.289L882.13,712.492L882.173,711.693L882.211,710.893L882.244,710.091L882.272,709.288L882.295,708.484L882.313,707.679L882.326,706.872L882.334,706.065L882.336,705.256L882.336,293.533L882.334,292.724L882.326,291.916L882.313,291.11L882.295,290.304L882.272,289.5L882.244,288.698L882.211,287.896L882.173,287.096L882.13,286.297L882.082,285.5L882.029,284.703L881.971,283.908L881.908,283.115L881.84,282.323L881.767,281.532L881.689,280.743L881.607,279.955L881.519,279.169L881.427,278.384L881.33,277.601L881.228,276.819L881.121,276.038L881.009,275.259L880.893,274.482L880.772,273.706L880.646,272.932L880.515,272.159L880.38,271.388L880.24,270.619L880.095,269.851L879.945,269.085L879.791,268.321L879.633,267.558L879.469,266.797L879.301,266.038L879.129,265.28L878.951,264.524L878.77,263.77L878.583,263.018L878.393,262.267L878.197,261.519L877.998,260.772L877.793,260.027L877.584,259.283L877.371,258.542L877.154,257.803L876.931,257.065L876.705,256.329L876.474,255.596L876.239,254.864L875.999,254.134L875.755,253.406L875.507,252.68L875.254,251.957L874.997,251.235L874.736,250.515L874.47,249.797L874.201,249.082L873.927,248.368L873.648,247.656L873.366,246.947L873.079,246.24L872.788,245.535L872.493,244.832L872.194,244.131L871.891,243.433L871.584,242.736L871.272,242.042L870.956,241.35L870.637,240.661L870.313,239.973L869.985,239.288L869.654,238.605L869.318,237.925L868.978,237.247L868.634,236.571L868.287,235.897L867.935,235.226L867.579,234.558L867.22,233.891L866.856,233.228L866.489,232.566L866.118,231.907L865.743,231.251L865.364,230.597L864.981,229.945L864.595,229.296L864.205,228.65L863.81,228.006L863.413,227.365L863.011,226.726L862.606,226.09L862.197,225.456L861.784,224.825L861.367,224.197L860.947,223.571L860.524,222.948L860.096,222.328L859.665,221.71L859.231,221.096L858.792,220.483L858.351,219.874L857.905,219.267L857.456,218.663L857.004,218.062L856.548,217.464L856.088,216.869L855.625,216.276L855.159,215.686L854.689,215.099L854.216,214.516L853.739,213.934L853.259,213.356L852.775,212.781L852.289,212.209L851.798,211.639L851.305,211.073L850.808,210.51L850.307,209.949L849.804,209.392L849.297,208.838L848.787,208.286L848.273,207.738L847.757,207.193L847.237,206.651L846.714,206.112L846.188,205.577L845.658,205.044L845.126,204.515L844.59,203.988L844.051,203.465L843.509,202.945L842.964,202.429L842.416,201.915L841.865,201.405L841.31,200.898L840.753,200.395L840.193,199.895L839.629,199.398L839.063,198.904L838.493,198.414L837.921,197.927L837.346,197.443L836.768,196.963L836.187,196.486L835.603,196.013L835.016,195.543L834.426,195.077L833.833,194.614L833.238,194.154L832.64,193.698L832.039,193.246L831.435,192.797L830.828,192.352L830.219,191.91L829.607,191.472L828.992,191.037L828.374,190.606L827.754,190.179L827.131,189.755L826.505,189.335L825.877,188.918L825.246,188.506L824.612,188.096L823.976,187.691L823.337,187.29L822.696,186.892L822.052,186.498L821.406,186.107L820.757,185.721L820.105,185.338L819.451,184.959L818.795,184.584L818.136,184.213L817.475,183.846L816.811,183.482L816.144,183.123L815.476,182.767L814.805,182.416L814.131,182.068L813.455,181.724L812.777,181.384L812.097,181.049L811.414,180.717L810.729,180.389L810.042,180.065L809.352,179.746L808.66,179.43L807.966,179.119L807.27,178.811L806.571,178.508L805.87,178.209L805.167,177.914L804.462,177.623L803.755,177.336L803.046,177.054L802.334,176.776L801.621,176.502L800.905,176.232L800.187,175.966L799.467,175.705L798.746,175.448L798.022,175.195L797.296,174.947L796.568,174.703L795.838,174.463L795.107,174.228L794.373,173.997L793.637,173.771L792.9,173.549L792.16,173.331L791.419,173.118L790.676,172.909L789.931,172.705L789.184,172.505L788.435,172.31L787.684,172.119L786.932,171.932L786.178,171.751L785.422,171.574L784.665,171.401L783.905,171.233L783.144,171.07L782.381,170.911L781.617,170.757L780.851,170.607L780.083,170.463L779.314,170.323L778.543,170.187L777.77,170.056L776.996,169.931L776.22,169.809L775.443,169.693L774.664,169.581L773.884,169.474L773.102,169.372L772.318,169.275L771.533,169.183L770.747,169.095L769.959,169.013L769.17,168.935L768.379,168.862L767.587,168.794L766.794,168.731L765.999,168.673L765.203,168.62L764.405,168.572L763.606,168.529L762.806,168.491L762.005,168.458L761.202,168.43L760.398,168.407L759.592,168.389L758.786,168.376L757.978,168.369L757.169,168.366L345.446,168.366Z" style="fill:white;"/>
                        </g>
                        <g transform="matrix(1,-0.000216115,0.000216115,1,-39.425,13.6251)">
                            <path d="M780.711,160.12L781.424,160.127L782.136,160.138L782.846,160.154L783.556,160.174L784.265,160.199L784.972,160.228L785.679,160.262L786.384,160.3L787.088,160.342L787.792,160.389L788.493,160.441L789.194,160.496L789.893,160.556L790.592,160.621L791.29,160.689L791.985,160.762L792.68,160.839L793.373,160.921L794.066,161.007L794.756,161.097L795.446,161.192L796.134,161.29L796.821,161.393L797.507,161.5L798.191,161.611L798.874,161.727L799.555,161.847L800.235,161.97L800.914,162.098L801.591,162.23L802.267,162.367L802.941,162.507L803.614,162.651L804.285,162.8L804.954,162.952L805.622,163.109L806.29,163.27L806.955,163.434L807.618,163.603L808.28,163.776L808.94,163.952L809.599,164.133L810.256,164.318L810.912,164.506L811.565,164.699L812.217,164.895L812.868,165.095L813.517,165.299L814.163,165.507L814.808,165.719L815.452,165.935L816.093,166.154L816.733,166.378L817.371,166.605L818.007,166.836L818.643,167.071L819.275,167.309L819.906,167.551L820.535,167.797L821.161,168.047L821.787,168.3L822.41,168.558L823.031,168.818L823.651,169.082L824.268,169.351L824.883,169.622L825.498,169.898L826.109,170.177L826.729,170.464L827.931,171.035L829.136,171.625L830.332,172.229L831.52,172.847L832.7,173.479L833.871,174.124L835.034,174.784L836.187,175.456L837.331,176.143L838.467,176.842L839.593,177.555L840.71,178.281L841.818,179.02L842.916,179.772L844.004,180.536L845.084,181.314L846.152,182.104L847.212,182.906L848.261,183.721L849.301,184.548L850.329,185.387L851.348,186.237L852.356,187.1L853.353,187.975L854.341,188.862L855.317,189.76L856.282,190.669L857.236,191.59L858.18,192.522L859.112,193.466L860.033,194.42L860.943,195.385L861.841,196.362L862.727,197.349L863.602,198.346L864.465,199.354L865.316,200.373L866.154,201.402L866.982,202.441L867.797,203.491L868.598,204.55L869.388,205.618L870.166,206.697L870.93,207.787L871.682,208.885L872.421,209.992L873.147,211.108L873.86,212.235L874.56,213.371L875.246,214.516L875.918,215.669L876.578,216.831L877.224,218.002L877.855,219.182L878.474,220.37L879.077,221.566L879.667,222.77L880.238,223.973L880.526,224.593L880.805,225.205L881.08,225.819L881.352,226.434L881.62,227.052L881.884,227.671L882.145,228.292L882.402,228.916L882.655,229.54L882.905,230.167L883.151,230.798L883.393,231.427L883.631,232.059L883.867,232.695L884.097,233.331L884.325,233.969L884.548,234.61L884.767,235.251L884.983,235.894L885.195,236.54L885.403,237.186L885.607,237.835L885.807,238.485L886.003,239.136L886.196,239.791L886.385,240.446L886.569,241.103L886.75,241.763L886.927,242.422L887.099,243.084L887.268,243.748L887.433,244.413L887.593,245.08L887.75,245.748L887.902,246.417L888.051,247.088L888.195,247.762L888.335,248.435L888.472,249.11L888.604,249.788L888.732,250.468L888.856,251.147L888.975,251.828L889.091,252.511L889.202,253.196L889.309,253.881L889.412,254.568L889.511,255.257L889.605,255.945L889.695,256.636L889.781,257.329L889.863,258.022L889.94,258.717L890.013,259.413L890.082,260.11L890.146,260.809L890.206,261.508L890.262,262.208L890.313,262.911L890.36,263.615L890.402,264.319L890.44,265.023L890.474,265.73L890.503,266.438L890.528,267.146L890.548,267.856L890.564,268.567L890.575,269.278L890.582,269.99L890.584,270.691L890.584,728.098L890.582,728.797L890.575,729.509L890.564,730.222L890.548,730.933L890.528,731.643L890.503,732.351L890.474,733.059L890.44,733.766L890.402,734.47L890.36,735.174L890.313,735.878L890.262,736.581L890.206,737.281L890.146,737.98L890.081,738.679L890.013,739.374L889.94,740.07L889.863,740.767L889.781,741.461L889.695,742.153L889.605,742.843L889.511,743.532L889.412,744.22L889.309,744.908L889.202,745.595L889.091,746.277L888.976,746.959L888.856,747.642L888.732,748.323L888.604,749L888.472,749.677L888.336,750.353L888.195,751.027L888.051,751.7L887.902,752.372L887.75,753.04L887.593,753.709L887.432,754.377L887.268,755.041L887.099,755.704L886.927,756.366L886.75,757.028L886.569,757.686L886.385,758.342L886.196,758.998L886.004,759.651L885.807,760.304L885.607,760.954L885.403,761.603L885.195,762.249L884.983,762.895L884.767,763.538L884.548,764.179L884.324,764.82L884.097,765.459L883.866,766.094L883.632,766.728L883.393,767.362L883.151,767.991L882.905,768.622L882.655,769.248L882.402,769.873L882.145,770.496L881.884,771.118L881.62,771.737L881.351,772.355L881.079,772.971L880.805,773.583L880.526,774.195L880.238,774.816L879.668,776.017L879.078,777.222L878.473,778.419L877.855,779.608L877.223,780.787L876.578,781.957L875.919,783.12L875.245,784.274L874.559,785.418L873.86,786.553L873.147,787.68L872.421,788.797L871.682,789.904L870.93,791.002L870.166,792.091L869.388,793.17L868.598,794.239L867.796,795.299L866.981,796.348L866.155,797.387L865.316,798.415L864.465,799.434L863.601,800.443L862.727,801.44L861.84,802.427L860.943,803.403L860.033,804.369L859.112,805.323L858.18,806.266L857.237,807.199L856.282,808.119L855.317,809.029L854.34,809.927L853.353,810.814L852.356,811.688L851.347,812.552L850.329,813.402L849.301,814.241L848.261,815.068L847.212,815.883L846.152,816.685L845.084,817.475L844.005,818.252L842.916,819.017L841.818,819.768L840.71,820.507L839.593,821.234L838.466,821.946L837.331,822.646L836.187,823.332L835.033,824.005L833.871,824.664L832.7,825.31L831.52,825.942L830.333,826.56L829.136,827.164L827.932,827.754L826.729,828.325L826.108,828.613L825.498,828.891L824.884,829.166L824.268,829.438L823.65,829.706L823.031,829.971L822.41,830.231L821.787,830.488L821.161,830.742L820.535,830.991L819.905,831.238L819.274,831.48L818.642,831.718L818.008,831.953L817.372,832.184L816.733,832.411L816.093,832.634L815.452,832.854L814.808,833.07L814.163,833.281L813.517,833.489L812.868,833.694L812.217,833.894L811.565,834.09L810.911,834.283L810.256,834.471L809.599,834.656L808.94,834.836L808.28,835.013L807.618,835.186L806.955,835.354L806.29,835.519L805.623,835.68L804.955,835.836L804.285,835.989L803.614,836.137L802.941,836.282L802.267,836.422L801.591,836.558L800.913,836.69L800.235,836.818L799.555,836.942L798.874,837.062L798.192,837.177L797.507,837.289L796.821,837.396L796.134,837.499L795.446,837.597L794.757,837.692L794.066,837.782L793.374,837.868L792.68,837.949L791.985,838.027L791.289,838.099L790.592,838.168L789.894,838.232L789.194,838.292L788.493,838.348L787.792,838.399L787.089,838.446L786.384,838.489L785.678,838.527L784.972,838.56L784.264,838.589L783.556,838.614L782.846,838.634L782.136,838.65L781.424,838.661L780.711,838.668L780.01,838.67L322.605,838.671L321.904,838.668L321.191,838.661L320.48,838.65L319.769,838.634L319.06,838.614L318.352,838.59L317.643,838.56L316.937,838.527L316.232,838.489L315.527,838.446L314.824,838.399L314.123,838.348L313.421,838.292L312.722,838.232L312.024,838.168L311.326,838.1L310.63,838.026L309.936,837.949L309.243,837.868L308.55,837.782L307.859,837.692L307.17,837.597L306.481,837.498L305.794,837.396L305.109,837.289L304.425,837.177L303.742,837.062L303.061,836.942L302.38,836.818L301.702,836.69L301.025,836.558L300.349,836.422L299.675,836.282L299.002,836.137L298.331,835.989L297.661,835.836L296.993,835.68L296.326,835.519L295.662,835.355L294.998,835.186L294.336,835.013L293.675,834.836L293.016,834.656L292.36,834.471L291.705,834.283L291.051,834.09L290.399,833.894L289.748,833.694L289.099,833.489L288.453,833.281L287.807,833.07L287.163,832.854L286.523,832.634L285.883,832.411L285.244,832.184L284.608,831.953L283.973,831.718L283.341,831.48L282.71,831.237L282.082,830.992L281.454,830.742L280.829,830.488L280.207,830.232L279.584,829.971L278.964,829.706L278.348,829.438L277.732,829.166L277.118,828.891L276.507,828.612L275.886,828.325L274.684,827.754L273.48,827.164L272.283,826.56L271.095,825.942L269.916,825.31L268.744,824.664L267.582,824.005L266.429,823.332L265.284,822.646L264.149,821.946L263.023,821.234L261.906,820.508L260.798,819.769L259.7,819.017L258.611,818.252L257.532,817.475L256.463,816.685L255.404,815.883L254.355,815.068L253.316,814.242L252.286,813.402L251.268,812.551L250.26,811.688L249.262,810.813L248.276,809.927L247.299,809.029L246.333,808.119L245.379,807.198L244.436,806.266L243.504,805.323L242.583,804.369L241.673,803.403L240.775,802.427L239.889,801.44L239.013,800.442L238.151,799.434L237.3,798.416L236.461,797.387L235.634,796.348L234.819,795.298L234.017,794.239L233.227,793.17L232.45,792.091L231.685,791.002L230.934,789.905L230.195,788.797L229.469,787.68L228.756,786.554L228.056,785.418L227.37,784.273L226.697,783.12L226.038,781.957L225.392,780.787L224.76,779.607L224.142,778.419L223.538,777.223L222.948,776.017L222.378,774.816L222.09,774.195L221.811,773.583L221.536,772.97L221.264,772.354L220.996,771.737L220.732,771.118L220.471,770.497L220.214,769.874L219.96,769.248L219.71,768.62L219.465,767.993L219.222,767.361L218.984,766.729L218.749,766.094L218.518,765.458L218.291,764.82L218.067,764.179L217.848,763.538L217.633,762.895L217.421,762.25L217.213,761.603L217.009,760.954L216.808,760.304L216.612,759.651L216.419,758.998L216.231,758.343L216.046,757.686L215.866,757.026L215.689,756.366L215.517,755.705L215.348,755.041L215.183,754.376L215.023,753.71L214.866,753.042L214.713,752.371L214.565,751.7L214.42,751.027L214.28,750.353L214.144,749.678L214.012,749L213.884,748.321L213.76,747.642L213.64,746.96L213.525,746.277L213.414,745.595L213.306,744.908L213.203,744.219L213.105,743.533L213.011,742.844L212.92,742.152L212.834,741.46L212.753,740.765L212.676,740.072L212.603,739.376L212.534,738.678L212.47,737.98L212.41,737.281L212.354,736.58L212.303,735.877L212.256,735.175L212.213,734.47L212.176,733.764L212.142,733.059L212.113,732.351L212.088,731.642L212.068,730.933L212.052,730.222L212.041,729.511L212.034,728.799L212.032,728.098L212.032,270.693L212.034,269.991L212.041,269.278L212.052,268.566L212.068,267.856L212.088,267.146L212.113,266.437L212.142,265.73L212.176,265.024L212.213,264.318L212.256,263.613L212.303,262.911L212.354,262.21L212.41,261.508L212.47,260.808L212.534,260.112L212.603,259.413L212.676,258.716L212.753,258.021L212.835,257.329L212.92,256.638L213.011,255.946L213.105,255.255L213.204,254.568L213.306,253.881L213.414,253.195L213.525,252.511L213.64,251.828L213.76,251.148L213.884,250.466L214.012,249.788L214.144,249.112L214.28,248.435L214.42,247.761L214.565,247.088L214.714,246.417L214.866,245.748L215.022,245.08L215.183,244.413L215.348,243.747L215.517,243.083L215.689,242.422L215.866,241.763L216.046,241.103L216.231,240.446L216.419,239.791L216.612,239.137L216.808,238.485L217.009,237.835L217.213,237.186L217.421,236.538L217.633,235.894L217.848,235.251L218.067,234.61L218.291,233.969L218.518,233.331L218.749,232.695L218.984,232.06L219.222,231.427L219.465,230.796L219.71,230.168L219.96,229.541L220.214,228.915L220.471,228.292L220.732,227.671L220.996,227.052L221.264,226.435L221.536,225.818L221.812,225.204L222.09,224.594L222.378,223.973L222.948,222.771L223.538,221.566L224.142,220.369L224.76,219.182L225.392,218.002L226.038,216.831L226.697,215.668L227.37,214.515L228.056,213.371L228.756,212.235L229.469,211.11L230.194,209.992L230.934,208.884L231.685,207.786L232.45,206.697L233.227,205.619L234.017,204.549L234.82,203.49L235.634,202.441L236.461,201.402L237.3,200.373L238.151,199.355L239.014,198.346L239.889,197.349L240.775,196.362L241.673,195.386L242.582,194.42L243.504,193.465L244.436,192.522L245.379,191.59L246.334,190.669L247.299,189.76L248.275,188.862L249.262,187.975L250.26,187.1L251.268,186.238L252.287,185.386L253.316,184.547L254.354,183.721L255.404,182.906L256.463,182.104L257.532,181.314L258.611,180.537L259.7,179.772L260.798,179.02L261.906,178.281L263.023,177.555L264.148,176.843L265.284,176.143L266.429,175.456L267.582,174.784L268.744,174.124L269.915,173.479L271.095,172.847L272.283,172.229L273.48,171.625L274.685,171.035L275.886,170.464L276.507,170.176L277.119,169.897L277.732,169.622L278.348,169.351L278.965,169.083L279.584,168.818L280.205,168.557L280.829,168.3L281.454,168.047L282.081,167.797L282.71,167.551L283.341,167.309L283.973,167.071L284.608,166.836L285.244,166.605L285.883,166.378L286.522,166.154L287.164,165.935L287.808,165.719L288.453,165.507L289.099,165.299L289.748,165.095L290.398,164.895L291.051,164.698L291.705,164.506L292.36,164.318L293.016,164.133L293.676,163.952L294.336,163.776L294.998,163.603L295.661,163.434L296.326,163.27L296.993,163.109L297.661,162.952L298.33,162.8L299.002,162.651L299.675,162.507L300.349,162.367L301.025,162.23L301.702,162.098L302.38,161.97L303.06,161.847L303.742,161.727L304.425,161.611L305.109,161.5L305.795,161.393L306.481,161.29L307.17,161.192L307.859,161.097L308.55,161.007L309.242,160.921L309.936,160.84L310.63,160.762L311.326,160.689L312.024,160.621L312.722,160.556L313.422,160.496L314.123,160.441L314.824,160.389L315.528,160.342L316.232,160.3L316.937,160.262L317.643,160.228L318.351,160.199L319.06,160.175L319.769,160.154L320.48,160.138L321.192,160.127L321.904,160.12L322.605,160.118L780.011,160.118L780.711,160.12ZM322.618,168.366L321.957,168.368L321.296,168.374L320.637,168.385L319.978,168.4L319.321,168.418L318.665,168.441L318.009,168.468L317.355,168.499L316.702,168.535L316.05,168.574L315.399,168.617L314.749,168.665L314.1,168.716L313.453,168.772L312.806,168.831L312.161,168.895L311.517,168.962L310.874,169.034L310.232,169.109L309.591,169.189L308.952,169.272L308.314,169.36L307.677,169.451L307.042,169.546L306.407,169.645L305.774,169.748L305.143,169.855L304.512,169.966L303.883,170.08L303.256,170.199L302.629,170.321L302.004,170.447L301.381,170.577L300.758,170.71L300.137,170.847L299.518,170.989L298.9,171.133L298.284,171.282L297.668,171.434L297.055,171.59L296.443,171.75L295.832,171.913L295.223,172.08L294.615,172.251L294.009,172.425L293.404,172.603L292.801,172.785L292.2,172.97L291.6,173.159L291.002,173.351L290.405,173.547L289.81,173.747L289.216,173.95L288.625,174.156L288.034,174.367L287.446,174.58L286.859,174.797L286.274,175.018L285.69,175.242L285.109,175.469L284.529,175.7L283.951,175.935L283.374,176.172L282.799,176.414L282.226,176.658L281.655,176.906L281.086,177.158L280.518,177.412L279.953,177.67L279.389,177.932L278.267,178.464L277.152,179.01L276.045,179.569L274.946,180.141L273.854,180.725L272.771,181.323L271.695,181.933L270.628,182.556L269.569,183.191L268.518,183.838L267.475,184.498L266.442,185.17L265.416,185.854L264.4,186.55L263.392,187.258L262.393,187.977L261.404,188.708L260.423,189.451L259.452,190.205L258.49,190.971L257.537,191.747L256.594,192.535L255.661,193.334L254.737,194.144L253.823,194.965L252.919,195.797L252.025,196.639L251.141,197.491L250.268,198.355L249.405,199.228L248.552,200.112L247.71,201.006L246.878,201.91L246.058,202.823L245.248,203.747L244.449,204.68L243.661,205.624L242.884,206.576L242.119,207.538L241.364,208.51L240.622,209.49L239.891,210.48L239.171,211.479L238.463,212.486L237.767,213.503L237.083,214.528L236.411,215.562L235.752,216.604L235.104,217.655L234.469,218.714L233.846,219.782L233.236,220.857L232.639,221.941L232.054,223.032L231.482,224.132L230.923,225.239L230.378,226.353L229.845,227.475L229.584,228.039L229.326,228.605L229.071,229.172L228.82,229.742L228.572,230.313L228.327,230.886L228.086,231.461L227.848,232.037L227.614,232.615L227.383,233.195L227.155,233.777L226.931,234.36L226.711,234.946L226.494,235.532L226.28,236.121L226.07,236.711L225.863,237.303L225.66,237.896L225.461,238.491L225.265,239.088L225.073,239.686L224.884,240.286L224.699,240.888L224.517,241.491L224.339,242.095L224.165,242.702L223.994,243.309L223.827,243.918L223.663,244.529L223.504,245.141L223.348,245.755L223.195,246.37L223.047,246.987L222.902,247.605L222.761,248.224L222.624,248.845L222.49,249.467L222.36,250.091L222.234,250.716L222.112,251.342L221.994,251.97L221.879,252.599L221.768,253.229L221.662,253.861L221.559,254.494L221.46,255.128L221.364,255.764L221.273,256.401L221.186,257.039L221.102,257.678L221.023,258.319L220.947,258.96L220.876,259.603L220.808,260.247L220.745,260.893L220.685,261.539L220.63,262.187L220.578,262.836L220.531,263.485L220.487,264.136L220.448,264.788L220.413,265.442L220.382,266.096L220.355,266.751L220.332,267.408L220.313,268.065L220.298,268.723L220.288,269.383L220.282,270.043L220.28,270.705L220.28,728.084L220.282,728.745L220.288,729.406L220.298,730.065L220.313,730.724L220.332,731.381L220.355,732.037L220.382,732.693L220.413,733.347L220.448,734L220.487,734.652L220.531,735.303L220.578,735.953L220.63,736.602L220.685,737.25L220.745,737.896L220.808,738.541L220.876,739.185L220.947,739.828L221.023,740.47L221.102,741.111L221.186,741.75L221.273,742.388L221.364,743.025L221.46,743.66L221.559,744.295L221.662,744.928L221.768,745.559L221.879,746.19L221.994,746.819L222.112,747.447L222.234,748.073L222.36,748.698L222.49,749.322L222.624,749.944L222.761,750.565L222.902,751.184L223.047,751.802L223.195,752.419L223.348,753.034L223.504,753.647L223.663,754.26L223.827,754.87L223.994,755.479L224.165,756.087L224.339,756.693L224.517,757.298L224.699,757.901L224.884,758.502L225.073,759.102L225.265,759.701L225.461,760.297L225.66,760.892L225.863,761.486L226.07,762.078L226.28,762.668L226.494,763.256L226.711,763.843L226.931,764.428L227.155,765.012L227.383,765.593L227.614,766.173L227.848,766.752L228.086,767.328L228.327,767.903L228.572,768.476L228.82,769.047L229.071,769.616L229.326,770.184L229.584,770.75L229.845,771.313L230.378,772.436L230.923,773.55L231.482,774.657L232.054,775.756L232.639,776.848L233.236,777.931L233.846,779.007L234.469,780.074L235.104,781.134L235.752,782.184L236.411,783.227L237.083,784.261L237.767,785.286L238.463,786.302L239.171,787.31L239.891,788.309L240.622,789.299L241.364,790.279L242.119,791.251L242.884,792.213L243.661,793.165L244.449,794.108L245.248,795.042L246.058,795.965L246.878,796.879L247.71,797.783L248.552,798.677L249.405,799.561L250.268,800.434L251.141,801.297L252.025,802.15L252.919,802.992L253.823,803.824L254.737,804.644L255.661,805.454L256.594,806.253L257.537,807.041L258.49,807.818L259.452,808.584L260.423,809.338L261.404,810.08L262.393,810.812L263.392,811.531L264.4,812.239L265.416,812.935L266.442,813.619L267.475,814.291L268.518,814.95L269.569,815.598L270.628,816.233L271.695,816.856L272.771,817.466L273.854,818.063L274.946,818.648L276.045,819.22L277.152,819.779L278.267,820.324L279.389,820.857L279.953,821.118L280.518,821.376L281.086,821.631L281.655,821.882L282.226,822.13L282.799,822.375L283.374,822.616L283.951,822.854L284.529,823.088L285.109,823.319L285.69,823.547L286.274,823.771L286.859,823.991L287.446,824.209L288.034,824.422L288.625,824.632L289.216,824.839L289.81,825.042L290.405,825.241L291.002,825.437L291.6,825.63L292.2,825.818L292.801,826.004L293.404,826.185L294.009,826.363L294.615,826.538L295.223,826.708L295.832,826.875L296.443,827.039L297.055,827.198L297.668,827.354L298.284,827.507L298.9,827.655L299.518,827.8L300.137,827.941L300.758,828.079L301.381,828.212L302.004,828.342L302.629,828.468L303.256,828.59L303.883,828.708L304.512,828.823L305.143,828.934L305.774,829.041L306.407,829.143L307.042,829.243L307.677,829.338L308.314,829.429L308.952,829.516L309.591,829.6L310.232,829.679L310.874,829.755L311.517,829.826L312.161,829.894L312.806,829.957L313.453,830.017L314.1,830.072L314.749,830.124L315.399,830.171L316.05,830.215L316.702,830.254L317.355,830.289L318.009,830.32L318.665,830.348L319.321,830.37L319.978,830.389L320.637,830.404L321.296,830.414L321.957,830.421L322.618,830.423L779.998,830.423L780.659,830.421L781.319,830.414L781.979,830.404L782.637,830.389L783.295,830.37L783.951,830.348L784.606,830.32L785.261,830.289L785.914,830.254L786.566,830.215L787.217,830.171L787.867,830.124L788.515,830.072L789.163,830.017L789.809,829.957L790.455,829.894L791.099,829.826L791.742,829.755L792.384,829.679L793.024,829.6L793.663,829.516L794.302,829.429L794.938,829.338L795.574,829.243L796.208,829.143L796.841,829.041L797.473,828.934L798.103,828.823L798.732,828.708L799.36,828.59L799.986,828.468L800.611,828.342L801.235,828.212L801.857,828.079L802.478,827.941L803.098,827.8L803.716,827.655L804.332,827.507L804.947,827.354L805.561,827.198L806.173,827.039L806.784,826.875L807.393,826.708L808.001,826.538L808.607,826.363L809.211,826.185L809.814,826.004L810.416,825.818L811.016,825.63L811.614,825.437L812.211,825.241L812.806,825.042L813.399,824.839L813.991,824.632L814.581,824.422L815.17,824.209L815.757,823.991L816.342,823.771L816.925,823.547L817.507,823.319L818.087,823.088L818.665,822.854L819.242,822.616L819.816,822.375L820.389,822.13L820.96,821.882L821.53,821.631L822.097,821.376L822.663,821.118L823.227,820.857L824.349,820.324L825.464,819.779L826.571,819.22L827.67,818.648L828.761,818.063L829.845,817.466L830.92,816.856L831.988,816.233L833.047,815.598L834.098,814.95L835.14,814.291L836.174,813.619L837.199,812.935L838.216,812.239L839.224,811.531L840.222,810.812L841.212,810.08L842.193,809.338L843.164,808.584L844.126,807.818L845.079,807.041L846.022,806.253L846.955,805.454L847.879,804.644L848.793,803.824L849.697,802.992L850.59,802.15L851.474,801.297L852.348,800.434L853.211,799.561L854.063,798.677L854.906,797.783L855.737,796.879L856.558,795.965L857.368,795.042L858.167,794.108L858.955,793.165L859.731,792.213L860.497,791.251L861.251,790.279L861.994,789.299L862.725,788.309L863.445,787.31L864.152,786.302L864.848,785.286L865.532,784.261L866.204,783.227L866.864,782.184L867.511,781.134L868.147,780.074L868.769,779.007L869.379,777.931L869.977,776.848L870.561,775.756L871.133,774.657L871.692,773.55L872.238,772.436L872.771,771.313L873.032,770.75L873.29,770.184L873.545,769.616L873.796,769.047L874.044,768.476L874.289,767.903L874.53,767.328L874.767,766.752L875.002,766.173L875.233,765.593L875.46,765.012L875.684,764.428L875.905,763.843L876.122,763.256L876.336,762.668L876.546,762.078L876.752,761.486L876.955,760.892L877.155,760.297L877.351,759.701L877.543,759.102L877.732,758.502L877.917,757.901L878.099,757.298L878.277,756.693L878.451,756.087L878.622,755.479L878.789,754.87L878.952,754.26L879.112,753.647L879.268,753.034L879.42,752.419L879.569,751.802L879.714,751.184L879.855,750.565L879.992,749.944L880.126,749.322L880.255,748.698L880.381,748.073L880.504,747.447L880.622,746.819L880.736,746.19L880.847,745.559L880.954,744.928L881.057,744.295L881.156,743.66L881.251,743.025L881.342,742.388L881.43,741.75L881.513,741.111L881.593,740.47L881.668,739.828L881.74,739.185L881.807,738.541L881.871,737.896L881.93,737.25L881.986,736.602L882.037,735.953L882.085,735.303L882.128,734.652L882.168,734L882.203,733.347L882.234,732.693L882.261,732.037L882.284,731.381L882.303,730.724L882.317,730.065L882.328,729.406L882.334,728.745L882.336,728.084L882.336,270.705L882.334,270.043L882.328,269.383L882.317,268.723L882.303,268.065L882.284,267.408L882.261,266.751L882.234,266.096L882.203,265.442L882.168,264.788L882.128,264.136L882.085,263.485L882.037,262.836L881.986,262.187L881.93,261.539L881.871,260.893L881.807,260.247L881.74,259.603L881.668,258.96L881.593,258.319L881.513,257.678L881.43,257.039L881.342,256.401L881.251,255.764L881.156,255.128L881.057,254.494L880.954,253.861L880.847,253.229L880.736,252.599L880.622,251.97L880.504,251.342L880.381,250.716L880.255,250.091L880.126,249.467L879.992,248.845L879.855,248.224L879.714,247.605L879.569,246.987L879.42,246.37L879.268,245.755L879.112,245.141L878.952,244.529L878.789,243.918L878.622,243.309L878.451,242.702L878.277,242.095L878.099,241.491L877.917,240.888L877.732,240.286L877.543,239.686L877.351,239.088L877.155,238.491L876.955,237.896L876.752,237.303L876.546,236.711L876.336,236.121L876.122,235.532L875.905,234.946L875.684,234.36L875.46,233.777L875.233,233.195L875.002,232.615L874.767,232.037L874.53,231.461L874.289,230.886L874.044,230.313L873.796,229.742L873.545,229.172L873.29,228.605L873.032,228.039L872.771,227.475L872.238,226.353L871.692,225.239L871.133,224.132L870.561,223.032L869.977,221.941L869.379,220.857L868.769,219.782L868.147,218.714L867.511,217.655L866.864,216.604L866.204,215.562L865.532,214.528L864.848,213.503L864.152,212.486L863.445,211.479L862.725,210.48L861.994,209.49L861.251,208.51L860.497,207.538L859.731,206.576L858.955,205.624L858.167,204.68L857.368,203.747L856.558,202.823L855.737,201.91L854.906,201.006L854.063,200.112L853.211,199.228L852.348,198.355L851.474,197.491L850.59,196.639L849.697,195.797L848.793,194.965L847.879,194.144L846.955,193.334L846.022,192.535L845.079,191.747L844.126,190.971L843.164,190.205L842.193,189.451L841.212,188.708L840.222,187.977L839.224,187.258L838.216,186.55L837.199,185.854L836.174,185.17L835.14,184.498L834.098,183.838L833.047,183.191L831.988,182.556L830.92,181.933L829.845,181.323L828.761,180.725L827.67,180.141L826.571,179.569L825.464,179.01L824.349,178.464L823.227,177.932L822.663,177.67L822.097,177.412L821.53,177.158L820.96,176.906L820.389,176.658L819.816,176.414L819.242,176.172L818.665,175.935L818.087,175.7L817.507,175.469L816.925,175.242L816.342,175.018L815.757,174.797L815.17,174.58L814.581,174.367L813.991,174.156L813.399,173.95L812.806,173.747L812.211,173.547L811.614,173.351L811.016,173.159L810.416,172.97L809.814,172.785L809.211,172.603L808.607,172.425L808.001,172.251L807.393,172.08L806.784,171.913L806.173,171.75L805.561,171.59L804.947,171.434L804.332,171.282L803.716,171.133L803.098,170.989L802.478,170.847L801.857,170.71L801.235,170.577L800.611,170.447L799.986,170.321L799.36,170.199L798.732,170.08L798.103,169.966L797.473,169.855L796.841,169.748L796.208,169.645L795.574,169.546L794.938,169.451L794.302,169.36L793.663,169.272L793.024,169.189L792.384,169.109L791.742,169.034L791.099,168.962L790.455,168.895L789.809,168.831L789.163,168.772L788.515,168.716L787.867,168.665L787.217,168.617L786.566,168.574L785.914,168.535L785.261,168.499L784.606,168.468L783.951,168.441L783.295,168.418L782.637,168.4L781.979,168.385L781.319,168.374L780.659,168.368L779.998,168.366L322.618,168.366Z" style="fill:white;"/>
                        </g>
                        <g transform="matrix(1.45904,0,0,1.45904,-132.29,119.273)">
                            <path d="M282.533,269.03L282.533,179.388L261.381,179.388L261.381,357.665L282.533,357.665L282.533,298.491L300.662,280.361L373.182,357.665L400.628,357.665C374.944,329.966 341.958,293.707 315.771,265.253L401.635,179.388L373.685,179.388L282.533,269.03Z" style="fill:none;"/>
                            <path d="M423.794,324.427C435.377,348.096 460.809,360.183 485.738,360.183C518.22,360.183 550.955,339.283 550.955,302.772L550.955,294.462C550.451,257.447 518.472,239.569 487.5,239.317C474.658,239.065 463.327,241.583 451.492,246.116L451.492,200.54L542.141,200.54L542.141,179.388L430.845,179.388L430.845,271.548L442.427,271.044C458.039,263.742 470.629,260.469 487.5,260.469C509.911,260.469 530.307,272.052 530.307,294.714L530.307,302.772C530.307,325.686 508.148,339.031 486.241,339.031C468.615,339.031 450.233,330.974 442.679,315.614L423.794,324.427Z" style="fill:none;"/>
                            <path d="M288.186,255.542L371.371,173.735L415.283,173.735L323.601,265.417L324.92,266.851L330.047,272.435L335.292,278.153L340.634,283.983L351.525,295.876L362.557,307.924L368.074,313.946L373.563,319.935L379.005,325.866L384.378,331.716L389.662,337.46L394.837,343.075L399.881,348.537L413.566,363.318L370.734,363.318L300.533,288.485L288.186,300.832L288.186,363.318L255.728,363.318L255.728,173.735L288.186,173.735L288.186,255.542ZM261.381,179.388L261.381,357.665L282.533,357.665L282.533,298.491L300.662,280.361L373.182,357.665L400.628,357.665L395.73,352.375L390.682,346.908L385.504,341.289L380.216,335.541L374.841,329.689L369.397,323.755L363.906,317.765L358.388,311.742L347.356,299.693L336.466,287.801L331.125,281.974L325.882,276.257L320.757,270.676L315.771,265.253L401.635,179.388L373.685,179.388L282.533,269.03L282.533,179.388L261.381,179.388Z" style="fill:white;"/>
                            <path d="M547.794,206.193L457.145,206.193L457.145,238.16L457.541,238.037L458.118,237.86L458.696,237.687L459.274,237.517L459.853,237.35L460.433,237.187L461.012,237.027L461.593,236.87L462.174,236.717L462.755,236.567L463.338,236.42L463.921,236.277L464.505,236.138L465.09,236.002L465.675,235.869L466.262,235.741L466.849,235.615L467.438,235.494L468.027,235.376L468.618,235.262L469.209,235.151L469.801,235.044L470.395,234.941L470.99,234.842L471.586,234.746L472.183,234.655L472.782,234.567L473.382,234.483L473.983,234.403L474.586,234.327L475.189,234.254L475.795,234.186L476.402,234.122L477.01,234.061L477.62,234.005L478.231,233.953L478.844,233.905L479.459,233.861L480.075,233.82L480.693,233.784L481.313,233.753L481.934,233.725L482.558,233.702L483.182,233.682L483.809,233.667L484.438,233.656L485.069,233.649L485.701,233.647L486.336,233.649L486.972,233.655L487.582,233.665L488.323,233.674L489.099,233.691L489.876,233.714L490.653,233.745L491.429,233.782L492.206,233.827L492.983,233.878L493.759,233.936L494.535,234.001L495.311,234.073L496.086,234.152L496.86,234.238L497.634,234.331L498.407,234.431L499.179,234.538L499.95,234.652L500.721,234.773L501.49,234.901L502.257,235.036L503.024,235.178L503.789,235.328L504.553,235.484L505.315,235.647L506.075,235.817L506.834,235.995L507.591,236.179L508.346,236.371L509.099,236.57L509.85,236.776L510.599,236.989L511.345,237.209L512.09,237.437L512.831,237.671L513.57,237.913L514.307,238.163L515.041,238.419L515.771,238.683L516.5,238.954L517.225,239.232L517.947,239.518L518.665,239.81L519.381,240.111L520.093,240.418L520.802,240.733L521.506,241.056L522.208,241.386L522.905,241.723L523.599,242.068L524.289,242.42L524.975,242.78L525.656,243.147L526.333,243.522L527.006,243.904L527.675,244.294L528.338,244.692L528.997,245.097L529.651,245.51L530.301,245.93L530.945,246.358L531.585,246.794L532.219,247.237L532.847,247.688L533.471,248.147L534.088,248.614L534.7,249.088L535.307,249.571L535.907,250.06L536.501,250.558L537.09,251.064L537.672,251.577L538.247,252.098L538.816,252.627L539.378,253.164L539.934,253.709L540.483,254.261L541.025,254.822L541.56,255.39L542.087,255.966L542.608,256.55L543.121,257.142L543.626,257.742L544.123,258.349L544.613,258.965L545.094,259.588L545.568,260.219L546.033,260.858L546.49,261.505L546.939,262.159L547.378,262.821L547.804,263.483L548.022,263.83L548.232,264.169L548.44,264.511L548.645,264.855L548.849,265.2L549.049,265.548L549.248,265.898L549.445,266.249L549.639,266.602L549.83,266.957L550.02,267.315L550.206,267.673L550.391,268.034L550.573,268.397L550.752,268.761L550.93,269.128L551.105,269.497L551.277,269.867L551.447,270.239L551.614,270.612L551.779,270.989L551.941,271.367L552.101,271.745L552.258,272.127L552.413,272.511L552.565,272.896L552.714,273.282L552.861,273.671L553.006,274.063L553.147,274.455L553.286,274.849L553.422,275.244L553.556,275.643L553.687,276.043L553.815,276.443L553.941,276.847L554.064,277.253L554.184,277.659L554.301,278.067L554.415,278.477L554.527,278.89L554.636,279.303L554.743,279.719L554.846,280.136L554.946,280.555L555.044,280.976L555.139,281.398L555.231,281.824L555.32,282.249L555.406,282.677L555.49,283.106L555.57,283.537L555.648,283.97L555.723,284.405L555.794,284.841L555.863,285.279L555.929,285.719L555.992,286.16L556.052,286.603L556.109,287.048L556.163,287.494L556.214,287.941L556.262,288.391L556.307,288.843L556.349,289.295L556.387,289.749L556.423,290.206L556.456,290.665L556.486,291.124L556.512,291.584L556.536,292.047L556.556,292.512L556.574,292.978L556.588,293.445L556.599,293.915L556.608,294.414L556.608,302.782L556.606,303.238L556.601,303.703L556.593,304.168L556.581,304.63L556.567,305.092L556.549,305.553L556.528,306.011L556.504,306.468L556.476,306.924L556.445,307.379L556.412,307.833L556.375,308.284L556.335,308.734L556.291,309.184L556.245,309.632L556.195,310.078L556.142,310.522L556.087,310.965L556.028,311.408L555.966,311.849L555.901,312.287L555.833,312.725L555.762,313.161L555.688,313.595L555.61,314.029L555.53,314.46L555.447,314.891L555.361,315.319L555.272,315.746L555.18,316.171L555.085,316.596L554.987,317.019L554.886,317.44L554.782,317.859L554.675,318.277L554.566,318.694L554.453,319.107L554.338,319.52L554.22,319.933L554.099,320.343L553.975,320.752L553.848,321.158L553.719,321.563L553.586,321.968L553.451,322.37L553.314,322.769L553.174,323.167L553.03,323.565L552.884,323.961L552.736,324.354L552.584,324.747L552.43,325.137L552.274,325.526L552.115,325.913L551.953,326.298L551.788,326.682L551.621,327.064L551.451,327.445L551.279,327.823L551.105,328.199L550.927,328.575L550.747,328.949L550.565,329.32L550.38,329.69L550.193,330.058L550.003,330.425L549.81,330.79L549.616,331.152L549.419,331.513L549.22,331.873L549.018,332.231L548.813,332.587L548.606,332.941L548.398,333.294L548.187,333.643L547.973,333.992L547.757,334.34L547.533,334.694L547.096,335.37L546.644,336.048L546.183,336.718L545.713,337.381L545.235,338.037L544.749,338.685L544.253,339.327L543.75,339.96L543.239,340.586L542.72,341.205L542.193,341.816L541.658,342.42L541.116,343.017L540.566,343.605L540.009,344.186L539.444,344.761L538.873,345.327L538.294,345.885L537.709,346.437L537.117,346.98L536.518,347.516L535.912,348.045L535.3,348.566L534.682,349.079L534.057,349.584L533.427,350.082L532.79,350.573L532.147,351.055L531.499,351.53L530.845,351.998L530.185,352.458L529.52,352.91L528.85,353.354L528.174,353.791L527.493,354.22L526.807,354.642L526.116,355.055L525.42,355.462L524.72,355.86L524.015,356.251L523.305,356.634L522.59,357.009L521.872,357.377L521.149,357.737L520.422,358.089L519.691,358.434L518.956,358.77L518.218,359.1L517.475,359.421L516.728,359.735L515.978,360.041L515.225,360.339L514.468,360.629L513.708,360.912L512.945,361.187L512.178,361.454L511.409,361.713L510.637,361.964L509.861,362.208L509.084,362.444L508.303,362.672L507.52,362.892L506.734,363.104L505.946,363.309L505.156,363.506L504.363,363.694L503.569,363.875L502.772,364.049L501.974,364.214L501.173,364.371L500.371,364.52L499.567,364.661L498.762,364.795L497.955,364.92L497.147,365.038L496.338,365.147L495.527,365.249L494.715,365.342L493.902,365.427L493.088,365.505L492.274,365.574L491.459,365.635L490.643,365.688L489.826,365.733L489.009,365.77L488.191,365.799L487.374,365.819L486.556,365.832L485.741,365.836L485.111,365.833L484.483,365.826L483.856,365.814L483.229,365.798L482.601,365.776L481.974,365.75L481.347,365.719L480.719,365.684L480.093,365.644L479.466,365.599L478.839,365.549L478.213,365.494L477.588,365.435L476.963,365.371L476.337,365.302L475.712,365.229L475.089,365.151L474.465,365.068L473.842,364.98L473.22,364.888L472.598,364.791L471.977,364.689L471.357,364.583L470.737,364.471L470.118,364.355L469.5,364.235L468.883,364.109L468.267,363.979L467.652,363.844L467.038,363.705L466.425,363.561L465.813,363.412L465.202,363.258L464.592,363.099L463.983,362.936L463.376,362.768L462.77,362.596L462.165,362.418L461.562,362.236L460.96,362.049L460.36,361.858L459.761,361.661L459.164,361.46L458.568,361.254L457.973,361.044L457.381,360.828L456.79,360.608L456.201,360.384L455.614,360.154L455.028,359.92L454.444,359.681L453.862,359.437L453.282,359.188L452.705,358.935L452.13,358.677L451.556,358.414L450.984,358.146L450.414,357.874L449.847,357.597L449.283,357.315L448.72,357.028L448.159,356.736L447.602,356.44L447.047,356.139L446.493,355.833L445.943,355.522L445.395,355.207L444.849,354.887L444.307,354.562L443.767,354.232L443.23,353.897L442.695,353.558L442.164,353.214L441.635,352.865L441.109,352.511L440.587,352.152L440.067,351.789L439.55,351.42L439.037,351.048L438.527,350.67L438.019,350.287L437.515,349.899L437.015,349.507L436.517,349.11L436.023,348.708L435.533,348.301L435.046,347.89L434.563,347.473L434.083,347.052L433.607,346.627L433.135,346.196L432.666,345.76L432.201,345.32L431.74,344.874L431.283,344.424L430.83,343.97L430.38,343.51L429.935,343.045L429.495,342.577L429.058,342.102L428.625,341.623L428.197,341.14L427.773,340.652L427.353,340.159L426.938,339.661L426.527,339.158L426.12,338.651L425.718,338.139L425.321,337.622L424.928,337.1L424.541,336.574L424.157,336.043L423.779,335.507L423.406,334.967L423.037,334.421L422.674,333.872L422.315,333.317L421.962,332.758L421.613,332.193L421.27,331.625L420.932,331.053L420.6,330.475L420.272,329.892L419.95,329.305L419.633,328.714L419.322,328.118L419.017,327.517L416.158,321.752L445.277,308.163L447.901,313.418L448.054,313.715L448.21,314.009L448.369,314.302L448.531,314.592L448.697,314.881L448.866,315.167L449.038,315.451L449.213,315.733L449.392,316.014L449.574,316.292L449.759,316.568L449.947,316.842L450.138,317.114L450.332,317.384L450.529,317.651L450.73,317.917L450.934,318.181L451.14,318.442L451.349,318.702L451.562,318.96L451.777,319.215L451.996,319.469L452.217,319.721L452.442,319.97L452.669,320.217L452.899,320.463L453.132,320.706L453.368,320.947L453.607,321.187L453.848,321.424L454.093,321.659L454.34,321.892L454.59,322.123L454.843,322.352L455.098,322.579L455.356,322.803L455.616,323.026L455.88,323.246L456.146,323.465L456.414,323.681L456.685,323.895L456.959,324.107L457.235,324.316L457.514,324.524L457.795,324.729L458.078,324.932L458.364,325.133L458.653,325.332L458.944,325.529L459.236,325.723L459.532,325.915L459.829,326.105L460.129,326.292L460.431,326.478L460.735,326.661L461.042,326.842L461.35,327.02L461.66,327.196L461.973,327.37L462.288,327.542L462.605,327.711L462.924,327.878L463.244,328.043L463.566,328.205L463.891,328.365L464.217,328.522L464.545,328.677L464.875,328.83L465.207,328.981L465.54,329.128L465.875,329.274L466.211,329.417L466.55,329.558L466.889,329.696L467.231,329.831L467.574,329.965L467.918,330.096L468.264,330.224L468.611,330.35L468.96,330.474L469.31,330.595L469.661,330.713L470.014,330.829L470.368,330.943L470.722,331.053L471.078,331.162L471.436,331.268L471.794,331.371L472.153,331.472L472.514,331.57L472.875,331.666L473.238,331.759L473.601,331.85L473.965,331.938L474.33,332.024L474.696,332.106L475.062,332.187L475.43,332.264L475.798,332.34L476.167,332.412L476.536,332.482L476.906,332.55L477.277,332.614L477.648,332.677L478.019,332.736L478.391,332.793L478.764,332.847L479.136,332.899L479.51,332.948L479.883,332.994L480.256,333.038L480.63,333.079L481.004,333.118L481.379,333.154L481.753,333.187L482.127,333.217L482.502,333.245L482.877,333.27L483.251,333.293L483.625,333.313L484,333.33L484.374,333.345L484.747,333.357L485.122,333.366L485.495,333.373L485.868,333.377L486.238,333.378L486.701,333.376L487.161,333.369L487.621,333.359L488.08,333.343L488.541,333.324L489.001,333.3L489.46,333.271L489.919,333.239L490.379,333.202L490.837,333.161L491.296,333.115L491.754,333.065L492.21,333.011L492.666,332.953L493.123,332.891L493.577,332.824L494.031,332.753L494.484,332.678L494.936,332.598L495.387,332.515L495.836,332.427L496.284,332.335L496.731,332.239L497.178,332.139L497.622,332.035L498.064,331.926L498.505,331.814L498.945,331.697L499.383,331.577L499.818,331.453L500.253,331.324L500.685,331.191L501.115,331.055L501.543,330.915L501.969,330.77L502.393,330.622L502.814,330.47L503.233,330.314L503.65,330.154L504.064,329.99L504.476,329.822L504.885,329.651L505.292,329.476L505.695,329.297L506.096,329.115L506.494,328.928L506.889,328.738L507.281,328.545L507.671,328.347L508.056,328.147L508.439,327.942L508.819,327.734L509.195,327.523L509.568,327.308L509.937,327.089L510.304,326.867L510.666,326.642L511.025,326.413L511.38,326.181L511.732,325.945L512.079,325.706L512.424,325.464L512.764,325.218L513.1,324.97L513.432,324.718L513.76,324.462L514.084,324.204L514.404,323.943L514.721,323.678L515.033,323.41L515.34,323.139L515.642,322.866L515.941,322.589L516.236,322.308L516.526,322.025L516.812,321.739L517.093,321.451L517.369,321.159L517.641,320.864L517.908,320.566L518.171,320.265L518.429,319.962L518.682,319.656L518.931,319.346L519.174,319.034L519.413,318.719L519.647,318.401L519.876,318.081L520.1,317.757L520.32,317.431L520.534,317.102L520.743,316.77L520.947,316.436L521.147,316.098L521.341,315.758L521.53,315.414L521.714,315.068L521.892,314.72L522.066,314.368L522.234,314.013L522.397,313.655L522.555,313.294L522.707,312.93L522.854,312.564L522.996,312.194L523.132,311.822L523.262,311.446L523.387,311.067L523.507,310.685L523.621,310.299L523.729,309.911L523.832,309.519L523.929,309.123L524.02,308.725L524.105,308.324L524.185,307.918L524.258,307.509L524.326,307.096L524.387,306.681L524.442,306.262L524.491,305.838L524.534,305.412L524.57,304.981L524.6,304.546L524.623,304.108L524.64,303.668L524.65,303.221L524.654,302.75L524.654,294.733L524.65,294.264L524.641,293.82L524.625,293.38L524.604,292.945L524.576,292.514L524.542,292.088L524.502,291.666L524.457,291.249L524.406,290.836L524.349,290.428L524.286,290.023L524.218,289.623L524.145,289.228L524.066,288.836L523.981,288.448L523.892,288.065L523.797,287.687L523.697,287.311L523.592,286.94L523.481,286.572L523.366,286.208L523.246,285.849L523.12,285.493L522.99,285.141L522.855,284.791L522.715,284.446L522.57,284.105L522.42,283.766L522.266,283.432L522.106,283.1L521.942,282.772L521.774,282.448L521.6,282.126L521.422,281.808L521.24,281.493L521.052,281.181L520.86,280.872L520.664,280.567L520.462,280.264L520.257,279.965L520.047,279.669L519.832,279.375L519.613,279.085L519.389,278.798L519.16,278.513L518.928,278.232L518.69,277.953L518.449,277.678L518.203,277.406L517.952,277.136L517.697,276.869L517.438,276.605L517.174,276.344L516.905,276.086L516.633,275.831L516.356,275.579L516.075,275.33L515.79,275.084L515.5,274.841L515.206,274.6L514.908,274.363L514.606,274.129L514.299,273.898L513.989,273.67L513.674,273.444L513.355,273.222L513.032,273.003L512.706,272.787L512.375,272.575L512.041,272.365L511.702,272.158L511.359,271.955L511.013,271.755L510.664,271.558L510.31,271.364L509.952,271.173L509.591,270.986L509.226,270.802L508.858,270.621L508.486,270.444L508.111,270.27L507.732,270.099L507.35,269.932L506.964,269.768L506.576,269.607L506.184,269.45L505.789,269.296L505.391,269.146L504.989,268.999L504.585,268.856L504.177,268.716L503.766,268.58L503.353,268.447L502.938,268.318L502.519,268.192L502.097,268.07L501.672,267.952L501.245,267.837L500.816,267.725L500.384,267.618L499.95,267.514L499.513,267.413L499.074,267.317L498.632,267.224L498.189,267.135L497.743,267.049L497.295,266.967L496.845,266.889L496.393,266.815L495.939,266.744L495.483,266.677L495.025,266.614L494.566,266.555L494.105,266.499L493.642,266.447L493.177,266.399L492.711,266.355L492.244,266.315L491.775,266.278L491.305,266.245L490.833,266.216L490.36,266.191L489.886,266.17L489.411,266.153L488.935,266.139L488.458,266.129L487.979,266.124L487.497,266.122L486.747,266.124L486.001,266.131L485.261,266.142L484.528,266.158L483.801,266.179L483.079,266.204L482.364,266.234L481.655,266.269L480.951,266.308L480.252,266.352L479.558,266.4L478.869,266.454L478.185,266.511L477.505,266.574L476.83,266.641L476.159,266.713L475.491,266.789L474.828,266.871L474.168,266.957L473.511,267.048L472.857,267.143L472.206,267.243L471.558,267.348L470.913,267.458L470.269,267.573L469.628,267.693L468.988,267.818L468.351,267.947L467.714,268.082L467.079,268.221L466.445,268.365L465.812,268.515L465.179,268.669L464.547,268.829L463.915,268.994L463.283,269.164L462.651,269.339L462.018,269.519L461.385,269.705L460.751,269.896L460.116,270.092L459.48,270.294L458.843,270.501L458.204,270.714L457.563,270.932L456.921,271.155L456.276,271.384L455.629,271.619L454.979,271.86L454.327,272.106L453.673,272.357L453.015,272.615L452.353,272.878L451.689,273.147L451.021,273.422L450.349,273.703L449.674,273.99L448.994,274.282L448.31,274.581L447.622,274.886L446.929,275.197L446.232,275.513L445.53,275.836L443.794,276.643L425.192,277.452L425.192,173.735L547.794,173.735L547.794,206.193ZM430.845,179.388L430.845,271.548L442.427,271.044L443.157,270.705L443.882,270.372L444.604,270.044L445.321,269.722L446.035,269.406L446.745,269.096L447.451,268.792L448.155,268.493L448.855,268.201L449.552,267.914L450.247,267.632L450.939,267.357L451.628,267.087L452.315,266.823L453.001,266.564L453.684,266.311L454.365,266.064L455.045,265.822L455.724,265.586L456.401,265.356L457.077,265.131L457.753,264.911L458.427,264.698L459.101,264.489L459.775,264.286L460.448,264.089L461.121,263.897L461.794,263.71L462.468,263.529L463.142,263.354L463.816,263.183L464.492,263.018L465.168,262.859L465.845,262.704L466.524,262.555L467.204,262.412L467.885,262.273L468.569,262.14L469.254,262.012L469.941,261.89L470.631,261.772L471.323,261.66L472.018,261.553L472.715,261.451L473.415,261.354L474.119,261.262L474.826,261.176L475.536,261.094L476.249,261.018L476.967,260.947L477.688,260.88L478.414,260.819L479.144,260.763L479.878,260.711L480.617,260.665L481.36,260.624L482.109,260.587L482.862,260.556L483.621,260.529L484.385,260.507L485.155,260.49L485.931,260.478L486.713,260.471L487.5,260.469L488.025,260.471L488.549,260.477L489.072,260.488L489.595,260.503L490.116,260.522L490.637,260.545L491.156,260.573L491.674,260.604L492.191,260.64L492.707,260.681L493.222,260.725L493.735,260.774L494.247,260.827L494.757,260.884L495.266,260.945L495.774,261.011L496.28,261.08L496.784,261.154L497.287,261.233L497.787,261.315L498.287,261.402L498.784,261.493L499.279,261.588L499.772,261.687L500.264,261.791L500.753,261.898L501.24,262.01L501.725,262.126L502.208,262.247L502.689,262.371L503.167,262.5L503.643,262.633L504.117,262.77L504.588,262.911L505.056,263.056L505.522,263.206L505.985,263.36L506.446,263.518L506.904,263.68L507.359,263.847L507.811,264.017L508.26,264.192L508.707,264.371L509.15,264.554L509.591,264.742L510.028,264.933L510.462,265.129L510.893,265.329L511.32,265.533L511.745,265.741L512.166,265.953L512.583,266.17L512.997,266.391L513.408,266.615L513.815,266.844L514.218,267.078L514.618,267.315L515.013,267.557L515.406,267.802L515.794,268.052L516.178,268.306L516.559,268.564L516.935,268.826L517.307,269.093L517.676,269.364L518.04,269.638L518.4,269.917L518.755,270.2L519.107,270.487L519.454,270.779L519.796,271.074L520.134,271.374L520.468,271.678L520.797,271.985L521.121,272.297L521.441,272.614L521.756,272.934L522.066,273.258L522.371,273.587L522.671,273.919L522.967,274.256L523.257,274.597L523.543,274.942L523.823,275.291L524.098,275.645L524.368,276.002L524.633,276.364L524.892,276.729L525.146,277.099L525.395,277.473L525.638,277.851L525.876,278.233L526.108,278.619L526.334,279.009L526.555,279.404L526.77,279.802L526.979,280.205L527.182,280.612L527.38,281.023L527.571,281.438L527.757,281.857L527.936,282.28L528.11,282.707L528.277,283.138L528.438,283.574L528.592,284.013L528.741,284.457L528.883,284.904L529.019,285.356L529.148,285.812L529.27,286.272L529.387,286.736L529.496,287.204L529.599,287.676L529.695,288.152L529.784,288.633L529.866,289.117L529.942,289.606L530.011,290.098L530.072,290.595L530.127,291.095L530.174,291.6L530.214,292.109L530.248,292.622L530.273,293.139L530.292,293.66L530.303,294.185L530.307,294.714L530.307,302.772L530.303,303.307L530.291,303.839L530.27,304.367L530.242,304.892L530.207,305.413L530.163,305.93L530.112,306.444L530.053,306.955L529.986,307.462L529.912,307.965L529.83,308.465L529.741,308.961L529.644,309.453L529.541,309.942L529.43,310.427L529.312,310.908L529.187,311.386L529.054,311.86L528.915,312.331L528.769,312.797L528.616,313.26L528.457,313.719L528.29,314.175L528.117,314.627L527.938,315.075L527.752,315.519L527.559,315.959L527.36,316.396L527.155,316.829L526.944,317.258L526.726,317.683L526.502,318.104L526.272,318.521L526.036,318.935L525.795,319.345L525.547,319.751L525.293,320.153L525.034,320.551L524.769,320.945L524.499,321.335L524.223,321.721L523.941,322.104L523.654,322.482L523.362,322.856L523.064,323.227L522.761,323.593L522.453,323.956L522.14,324.314L521.822,324.668L521.499,325.019L521.171,325.365L520.838,325.707L520.5,326.046L520.158,326.38L519.811,326.71L519.459,327.036L519.103,327.357L518.743,327.675L518.378,327.989L518.008,328.298L517.635,328.603L517.257,328.904L516.875,329.201L516.489,329.494L516.099,329.783L515.705,330.067L515.307,330.347L514.905,330.623L514.5,330.895L514.091,331.162L513.678,331.425L513.262,331.684L512.842,331.939L512.419,332.189L511.992,332.435L511.562,332.677L511.129,332.914L510.693,333.147L510.253,333.376L509.811,333.6L509.365,333.82L508.917,334.036L508.466,334.247L508.012,334.454L507.555,334.656L507.095,334.854L506.633,335.048L506.169,335.237L505.702,335.421L505.232,335.601L504.76,335.777L504.286,335.948L503.81,336.115L503.332,336.277L502.851,336.435L502.368,336.588L501.884,336.737L501.397,336.881L500.909,337.02L500.419,337.155L499.927,337.285L499.434,337.411L498.939,337.532L498.443,337.649L497.945,337.76L497.445,337.868L496.945,337.97L496.443,338.068L495.94,338.161L495.436,338.25L494.931,338.334L494.424,338.413L493.917,338.487L493.409,338.557L492.9,338.622L492.391,338.682L491.88,338.738L491.37,338.789L490.858,338.835L490.346,338.876L489.834,338.912L489.321,338.944L488.808,338.97L488.295,338.992L487.782,339.009L487.268,339.021L486.755,339.029L486.241,339.031L485.828,339.03L485.414,339.025L485.001,339.018L484.587,339.008L484.173,338.994L483.759,338.978L483.345,338.959L482.93,338.937L482.516,338.912L482.102,338.884L481.688,338.853L481.273,338.819L480.859,338.783L480.446,338.743L480.032,338.7L479.619,338.655L479.205,338.607L478.793,338.555L478.38,338.501L477.968,338.444L477.556,338.384L477.145,338.321L476.734,338.255L476.323,338.186L475.913,338.115L475.504,338.04L475.095,337.963L474.687,337.882L474.279,337.799L473.872,337.713L473.466,337.624L473.061,337.532L472.656,337.437L472.253,337.34L471.85,337.239L471.448,337.136L471.046,337.03L470.646,336.92L470.247,336.808L469.849,336.694L469.452,336.576L469.056,336.455L468.661,336.332L468.267,336.205L467.874,336.076L467.483,335.944L467.093,335.809L466.704,335.672L466.316,335.531L465.93,335.388L465.545,335.241L465.162,335.092L464.78,334.94L464.399,334.786L464.02,334.628L463.643,334.468L463.267,334.304L462.893,334.138L462.52,333.969L462.149,333.798L461.78,333.623L461.413,333.446L461.047,333.265L460.683,333.082L460.321,332.897L459.961,332.708L459.603,332.516L459.247,332.322L458.892,332.125L458.54,331.925L458.19,331.723L457.841,331.517L457.495,331.309L457.151,331.098L456.81,330.884L456.47,330.667L456.133,330.448L455.798,330.226L455.465,330.001L455.135,329.773L454.807,329.542L454.481,329.309L454.158,329.073L453.837,328.834L453.519,328.593L453.203,328.348L452.89,328.101L452.58,327.851L452.272,327.598L451.967,327.343L451.664,327.085L451.365,326.824L451.068,326.56L450.774,326.294L450.482,326.024L450.194,325.753L449.909,325.478L449.626,325.2L449.346,324.92L449.07,324.637L448.796,324.352L448.526,324.063L448.258,323.772L447.994,323.478L447.733,323.182L447.475,322.883L447.22,322.581L446.969,322.276L446.721,321.968L446.476,321.658L446.235,321.345L445.997,321.03L445.762,320.711L445.531,320.39L445.304,320.067L445.08,319.74L444.859,319.411L444.643,319.079L444.429,318.745L444.22,318.408L444.014,318.068L443.812,317.725L443.613,317.38L443.419,317.032L443.228,316.681L443.041,316.328L442.858,315.972L442.679,315.614L423.794,324.427L424.068,324.979L424.347,325.528L424.631,326.072L424.92,326.612L425.214,327.147L425.513,327.679L425.816,328.206L426.125,328.729L426.438,329.247L426.756,329.762L427.078,330.272L427.405,330.778L427.737,331.279L428.073,331.777L428.414,332.27L428.759,332.759L429.108,333.243L429.462,333.724L429.821,334.2L430.183,334.671L430.55,335.139L430.921,335.602L431.296,336.061L431.676,336.516L432.059,336.966L432.446,337.412L432.838,337.854L433.233,338.292L433.633,338.725L434.036,339.154L434.443,339.579L434.854,339.999L435.268,340.415L435.687,340.827L436.109,341.235L436.534,341.638L436.964,342.037L437.396,342.432L437.833,342.822L438.272,343.208L438.716,343.59L439.162,343.967L439.612,344.34L440.065,344.709L440.522,345.074L440.982,345.434L441.445,345.79L441.911,346.142L442.38,346.489L442.852,346.832L443.327,347.171L443.805,347.505L444.287,347.835L444.771,348.161L445.258,348.482L445.747,348.8L446.24,349.112L446.735,349.421L447.233,349.725L447.733,350.025L448.237,350.32L448.742,350.611L449.251,350.898L449.761,351.181L450.274,351.459L450.79,351.733L451.308,352.002L451.828,352.267L452.351,352.528L452.876,352.785L453.403,353.037L453.932,353.284L454.463,353.528L454.996,353.767L455.532,354.002L456.069,354.232L456.608,354.458L457.149,354.68L457.693,354.897L458.237,355.11L458.784,355.319L459.333,355.523L459.883,355.723L460.435,355.919L460.988,356.11L461.543,356.297L462.1,356.479L462.658,356.657L463.217,356.831L463.778,357L464.34,357.165L464.904,357.326L465.469,357.482L466.035,357.634L466.603,357.781L467.171,357.924L467.741,358.063L468.312,358.197L468.883,358.327L469.456,358.453L470.03,358.574L470.605,358.691L471.18,358.803L471.757,358.911L472.334,359.015L472.912,359.114L473.491,359.209L474.07,359.299L474.65,359.385L475.231,359.467L475.812,359.544L476.394,359.617L476.976,359.686L477.559,359.75L478.142,359.809L478.725,359.864L479.309,359.915L479.893,359.962L480.477,360.004L481.061,360.041L481.646,360.074L482.23,360.103L482.815,360.127L483.4,360.147L483.984,360.163L484.569,360.174L485.153,360.18L485.738,360.183L486.499,360.179L487.26,360.167L488.022,360.148L488.783,360.122L489.543,360.087L490.304,360.045L491.064,359.996L491.823,359.939L492.582,359.875L493.34,359.802L494.097,359.723L494.853,359.636L495.608,359.541L496.362,359.44L497.115,359.33L497.866,359.213L498.616,359.089L499.364,358.957L500.111,358.818L500.856,358.672L501.6,358.518L502.341,358.357L503.081,358.189L503.818,358.013L504.553,357.83L505.286,357.64L506.017,357.443L506.745,357.238L507.471,357.026L508.194,356.807L508.914,356.58L509.631,356.347L510.346,356.106L511.057,355.858L511.766,355.603L512.471,355.341L513.172,355.071L513.871,354.795L514.566,354.512L515.257,354.221L515.945,353.924L516.629,353.619L517.309,353.307L517.985,352.989L518.657,352.663L519.324,352.33L519.988,351.991L520.647,351.644L521.302,351.291L521.952,350.931L522.598,350.564L523.239,350.189L523.875,349.808L524.506,349.421L525.132,349.026L525.753,348.624L526.369,348.216L526.98,347.801L527.585,347.379L528.185,346.951L528.779,346.515L529.367,346.073L529.95,345.624L530.527,345.169L531.098,344.707L531.663,344.238L532.222,343.762L532.774,343.28L533.32,342.791L533.86,342.296L534.393,341.794L534.92,341.285L535.44,340.77L535.953,340.249L536.46,339.72L536.959,339.186L537.451,338.644L537.936,338.097L538.414,337.543L538.884,336.982L539.347,336.415L539.803,335.841L540.25,335.261L540.69,334.675L541.123,334.082L541.547,333.483L541.963,332.878L542.371,332.266L542.771,331.648L542.968,331.336L543.163,331.023L543.355,330.709L543.546,330.393L543.734,330.075L543.92,329.756L544.105,329.435L544.286,329.112L544.466,328.788L544.644,328.463L544.819,328.136L544.993,327.807L545.164,327.477L545.332,327.145L545.499,326.812L545.663,326.477L545.825,326.141L545.985,325.803L546.142,325.463L546.297,325.122L546.45,324.78L546.601,324.436L546.749,324.09L546.895,323.743L547.038,323.394L547.179,323.044L547.318,322.692L547.454,322.339L547.588,321.984L547.72,321.628L547.849,321.27L547.975,320.911L548.099,320.55L548.221,320.187L548.34,319.823L548.457,319.458L548.571,319.091L548.683,318.723L548.792,318.353L548.899,317.981L549.003,317.608L549.104,317.234L549.203,316.858L549.3,316.481L549.393,316.102L549.485,315.721L549.573,315.339L549.659,314.956L549.742,314.571L549.823,314.185L549.901,313.797L549.976,313.408L550.049,313.017L550.119,312.624L550.186,312.231L550.25,311.835L550.312,311.439L550.371,311.041L550.427,310.641L550.481,310.24L550.531,309.837L550.579,309.433L550.624,309.028L550.666,308.621L550.706,308.212L550.742,307.803L550.776,307.391L550.807,306.978L550.835,306.564L550.86,306.149L550.882,305.732L550.901,305.313L550.917,304.893L550.931,304.472L550.941,304.049L550.949,303.624L550.953,303.199L550.955,302.772L550.955,294.462L550.947,294.029L550.937,293.598L550.924,293.169L550.908,292.741L550.889,292.315L550.868,291.891L550.843,291.469L550.816,291.048L550.786,290.629L550.753,290.212L550.718,289.796L550.68,289.383L550.639,288.971L550.595,288.561L550.548,288.152L550.499,287.746L550.447,287.341L550.393,286.938L550.336,286.536L550.276,286.136L550.213,285.738L550.148,285.342L550.08,284.948L550.01,284.555L549.937,284.164L549.861,283.775L549.783,283.387L549.702,283.001L549.619,282.617L549.533,282.235L549.445,281.854L549.354,281.476L549.26,281.098L549.164,280.723L549.066,280.349L548.965,279.977L548.862,279.607L548.756,279.239L548.648,278.872L548.537,278.507L548.424,278.144L548.309,277.782L548.191,277.423L548.07,277.065L547.948,276.708L547.823,276.354L547.695,276.001L547.566,275.65L547.434,275.3L547.299,274.952L547.163,274.606L547.024,274.262L546.883,273.92L546.739,273.579L546.594,273.24L546.446,272.902L546.295,272.567L546.143,272.233L545.988,271.901L545.832,271.57L545.673,271.241L545.512,270.914L545.348,270.589L545.183,270.265L545.015,269.944L544.845,269.623L544.674,269.305L544.5,268.988L544.324,268.673L544.145,268.36L543.965,268.048L543.783,267.738L543.599,267.43L543.412,267.124L543.224,266.819L543.034,266.516L542.647,265.915L542.252,265.321L541.85,264.734L541.44,264.153L541.022,263.58L540.597,263.013L540.164,262.453L539.724,261.9L539.277,261.353L538.822,260.814L538.361,260.281L537.892,259.755L537.417,259.236L536.935,258.724L536.446,258.218L535.95,257.719L535.448,257.227L534.94,256.742L534.425,256.264L533.904,255.792L533.377,255.327L532.844,254.869L532.305,254.417L531.76,253.973L531.209,253.535L530.653,253.103L530.091,252.679L529.524,252.261L528.951,251.85L528.373,251.446L527.789,251.048L527.201,250.657L526.607,250.273L526.009,249.896L525.406,249.525L524.798,249.161L524.185,248.803L523.568,248.452L522.946,248.108L522.32,247.771L521.69,247.44L521.055,247.116L520.417,246.799L519.774,246.488L519.128,246.184L518.477,245.887L517.823,245.596L517.166,245.312L516.505,245.034L515.84,244.763L515.172,244.499L514.501,244.241L513.826,243.99L513.149,243.746L512.469,243.508L511.785,243.277L511.099,243.053L510.41,242.835L509.719,242.623L509.025,242.418L508.329,242.22L507.63,242.029L506.929,241.844L506.226,241.665L505.521,241.493L504.814,241.328L504.105,241.169L503.394,241.017L502.682,240.871L501.968,240.732L501.253,240.599L500.536,240.473L499.818,240.354L499.098,240.241L498.378,240.134L497.656,240.034L496.934,239.941L496.211,239.854L495.487,239.774L494.762,239.7L494.037,239.632L493.311,239.571L492.585,239.517L491.859,239.469L491.132,239.428L490.406,239.393L489.679,239.364L488.953,239.342L488.226,239.326L487.5,239.317L486.899,239.307L486.301,239.302L485.704,239.3L485.11,239.302L484.517,239.309L483.927,239.319L483.338,239.333L482.751,239.351L482.167,239.373L481.584,239.399L481.002,239.429L480.423,239.463L479.845,239.5L479.268,239.542L478.694,239.587L478.121,239.636L477.549,239.689L476.979,239.745L476.41,239.806L475.842,239.87L475.276,239.937L474.711,240.009L474.147,240.084L473.584,240.163L473.023,240.245L472.462,240.331L471.903,240.421L471.344,240.514L470.786,240.611L470.23,240.711L469.674,240.815L469.119,240.922L468.564,241.033L468.011,241.148L467.457,241.266L466.905,241.387L466.353,241.512L465.802,241.64L465.251,241.772L464.7,241.907L464.15,242.045L463.6,242.187L463.051,242.332L462.501,242.48L461.952,242.632L461.403,242.787L460.854,242.945L460.306,243.106L459.757,243.271L459.208,243.439L458.659,243.61L458.11,243.784L457.56,243.961L457.011,244.142L456.461,244.325L455.911,244.512L455.36,244.702L454.809,244.895L454.258,245.091L453.706,245.29L453.154,245.492L452.6,245.697L451.492,246.116L451.492,200.54L542.141,200.54L542.141,179.388L430.845,179.388Z" style="fill:white;"/>
                        </g>
                    </g>
                </g>
            </g>
        </g>
    </g>
</svg>
