<?xml version="1.0" encoding="UTF-8" standalone="no"?><!DOCTYPE svg PUBLIC "-//W3C//DTD SVG 1.1//EN" "http://www.w3.org/Graphics/SVG/1.1/DTD/svg11.dtd"><svg width="100%" height="100%" viewBox="0 0 13 12" version="1.1" xmlns="http://www.w3.org/2000/svg" xmlns:xlink="http://www.w3.org/1999/xlink" xml:space="preserve" style="fill-rule:evenodd;clip-rule:evenodd;stroke-linejoin:round;stroke-miterlimit:1.41421;"><path id="Twitter-Icon" d="M11.41,3.179c0.004,0.105 0.006,0.211 0.006,0.318c0,3.254 -2.478,7.006 -7.011,7.006c-1.392,0 -2.686,-0.406 -3.777,-1.107c0.193,0.024 0.388,0.035 0.587,0.035c1.155,0 2.218,-0.393 3.061,-1.054c-1.078,-0.019 -1.989,-0.732 -2.302,-1.71c0.15,0.029 0.306,0.045 0.464,0.045c0.224,0 0.441,-0.031 0.65,-0.087c-1.128,-0.227 -1.978,-1.221 -1.978,-2.414c0,-0.013 0,-0.022 0,-0.031c0.332,0.183 0.713,0.295 1.117,0.307c-0.662,-0.442 -1.097,-1.195 -1.097,-2.049c0,-0.452 0.121,-0.874 0.334,-1.239c1.215,1.49 3.031,2.47 5.079,2.574c-0.042,-0.18 -0.064,-0.37 -0.064,-0.562c0,-1.36 1.104,-2.462 2.465,-2.462c0.708,0 1.348,0.299 1.797,0.778c0.563,-0.111 1.09,-0.316 1.567,-0.598c-0.185,0.574 -0.575,1.057 -1.085,1.361c0.499,-0.057 0.974,-0.191 1.416,-0.386c-0.331,0.494 -0.748,0.927 -1.229,1.275Z" style="fill:#fff;"/></svg>