<?xml version="1.0" encoding="UTF-8" standalone="no"?><!DOCTYPE svg PUBLIC "-//W3C//DTD SVG 1.1//EN" "http://www.w3.org/Graphics/SVG/1.1/DTD/svg11.dtd"><svg width="100%" height="100%" viewBox="0 0 750 750" version="1.1" xmlns="http://www.w3.org/2000/svg" xmlns:xlink="http://www.w3.org/1999/xlink" xml:space="preserve" style="fill-rule:evenodd;clip-rule:evenodd;stroke-linejoin:round;stroke-miterlimit:1.41421;"><g id="K5-Key"><path d="M748.468,141.879c-0.017,-78.046 -63.394,-141.396 -141.439,-141.379l-465.15,0.101c-78.046,0.016 -141.396,63.393 -141.379,141.439l0.101,465.15c0.016,78.046 63.393,141.396 141.439,141.379l465.15,-0.101c78.046,-0.017 141.396,-63.394 141.379,-141.439l-0.101,-465.15Z" style="fill:#d9d9d9;stroke:#afafaf;stroke-width:1px;"/><path d="M705.504,102.817c-0.012,-56.482 -45.879,-102.328 -102.361,-102.316l-457.379,0.099c-56.482,0.012 -102.329,45.878 -102.317,102.36l0.099,457.38c0.012,56.482 45.879,102.328 102.361,102.316l457.379,-0.099c56.483,-0.012 102.329,-45.878 102.317,-102.36l-0.099,-457.38Z" style="fill:#fff;stroke:#afafaf;stroke-width:1px;"/><g transform="matrix(2.624,0,0,2.624,-10059.6,-21032.2)"><text x="3874.37px" y="8218.83px" style="font-family:'Roboto-Medium', 'Roboto';font-weight:500;font-size:54.878px;fill:none;">B<tspan x="3912.27px 3947.36px 3979.04px 4017.16px 4033.57px " y="8218.83px 8218.83px 8218.83px 8218.83px 8218.83px ">ETA 1</tspan></text><text x="3874.37px" y="8218.83px" style="font-family:'Roboto-Medium', 'Roboto';font-weight:500;font-size:54.878px;fill:#afafaf;">B<tspan x="3912.27px 3947.36px 3979.04px 4017.16px 4033.57px " y="8218.83px 8218.83px 8218.83px 8218.83px 8218.83px ">ETA 1</tspan></text><path d="M3891.81,8179.43l0.203,0.002l0.101,0.001l0.201,0.004l0.1,0.003l0.199,0.006l0.198,0.007l0.098,0.004l0.098,0.005l0.098,0.005l0.097,0.005l0.097,0.005l0.096,0.006l0.097,0.006l0.096,0.006l0.095,0.007l0.096,0.007l0.094,0.008l0.095,0.007l0.095,0.009l0.093,0.008l0.094,0.009l0.093,0.009l0.093,0.009l0.093,0.01l0.092,0.01l0.092,0.011l0.091,0.01l0.091,0.011l0.092,0.012l0.09,0.012l0.09,0.012l0.091,0.012l0.089,0.013l0.089,0.013l0.089,0.013l0.088,0.014l0.089,0.014l0.087,0.015l0.088,0.014l0.087,0.015l0.087,0.016l0.087,0.016l0.086,0.016l0.086,0.016l0.085,0.017l0.085,0.017l0.085,0.017l0.085,0.018l0.084,0.019l0.083,0.018l0.084,0.019l0.083,0.019l0.083,0.019l0.082,0.02l0.083,0.02l0.082,0.021l0.081,0.02l0.08,0.021l0.082,0.022l0.081,0.022l0.079,0.022l0.08,0.022l0.079,0.023l0.08,0.023l0.078,0.024l0.079,0.024l0.078,0.024l0.078,0.024l0.077,0.025l0.077,0.025l0.077,0.026l0.076,0.026l0.076,0.026l0.076,0.027l0.075,0.026l0.075,0.028l0.075,0.027l0.074,0.028l0.074,0.028l0.074,0.029l0.073,0.029l0.073,0.029l0.073,0.03l0.072,0.03l0.072,0.03l0.072,0.031l0.071,0.031l0.071,0.031l0.07,0.032l0.071,0.032l0.07,0.032l0.069,0.033l0.069,0.033l0.069,0.033l0.069,0.034l0.068,0.034l0.068,0.035l0.067,0.034l0.067,0.035l0.067,0.036l0.067,0.036l0.066,0.036l0.066,0.036l0.065,0.037l0.065,0.037l0.065,0.038l0.064,0.037l0.065,0.039l0.063,0.038l0.063,0.039l0.063,0.039l0.063,0.04l0.062,0.04l0.062,0.04l0.062,0.041l0.061,0.04l0.061,0.041l0.061,0.042l0.06,0.042l0.06,0.043l0.059,0.042l0.059,0.043l0.059,0.044l0.059,0.043l0.058,0.045l0.058,0.044l0.057,0.045l0.056,0.045l0.057,0.046l0.056,0.046l0.055,0.046l0.055,0.047l0.055,0.047l0.053,0.047l0.054,0.047l0.054,0.049l0.052,0.048l0.052,0.049l0.052,0.049l0.051,0.049l0.051,0.05l0.051,0.05l0.05,0.051l0.049,0.05l0.049,0.051l0.049,0.052l0.048,0.051l0.047,0.052l0.048,0.053l0.047,0.053l0.046,0.053l0.046,0.054l0.045,0.053l0.045,0.055l0.045,0.054l0.044,0.055l0.043,0.055l0.043,0.056l0.043,0.056l0.042,0.056l0.042,0.057l0.041,0.057l0.04,0.057l0.041,0.058l0.039,0.057l0.04,0.059l0.039,0.058l0.038,0.059l0.038,0.059l0.037,0.06l0.037,0.06l0.037,0.06l0.036,0.061l0.036,0.06l0.035,0.062l0.035,0.062l0.034,0.062l0.033,0.062l0.033,0.062l0.033,0.063l0.033,0.063l0.032,0.064l0.031,0.064l0.031,0.064l0.03,0.064l0.03,0.065l0.029,0.065l0.03,0.066l0.028,0.066l0.028,0.066l0.028,0.066l0.027,0.067l0.027,0.067l0.026,0.068l0.026,0.068l0.025,0.067l0.024,0.069l0.025,0.068l0.024,0.07l0.023,0.069l0.023,0.069l0.022,0.071l0.022,0.07l0.022,0.07l0.021,0.071l0.02,0.071l0.021,0.072l0.019,0.072l0.019,0.072l0.019,0.072l0.018,0.073l0.018,0.073l0.017,0.074l0.017,0.073l0.016,0.074l0.016,0.075l0.016,0.074l0.015,0.075l0.014,0.076l0.014,0.075l0.014,0.076l0.013,0.076l0.013,0.077l0.012,0.076l0.012,0.078l0.011,0.077l0.011,0.078l0.01,0.078l0.01,0.078l0.009,0.079l0.009,0.079l0.009,0.079l0.008,0.08l0.007,0.08l0.007,0.08l0.007,0.08l0.006,0.081l0.006,0.081l0.005,0.082l0.005,0.081l0.004,0.082l0.004,0.083l0.003,0.082l0.003,0.083l0.003,0.083l0.002,0.084l0.002,0.084l0.001,0.084l0,0.085l0.001,0.085l-0.001,0.086l-0.001,0.086l-0.002,0.085l-0.003,0.086l-0.003,0.085l-0.004,0.085l-0.005,0.085l-0.006,0.084l-0.007,0.084l-0.007,0.084l-0.008,0.084l-0.01,0.083l-0.009,0.083l-0.011,0.083l-0.011,0.083l-0.012,0.082l-0.013,0.082l-0.014,0.082l-0.014,0.081l-0.015,0.082l-0.016,0.08l-0.017,0.081l-0.018,0.081l-0.018,0.08l-0.019,0.08l-0.02,0.079l-0.021,0.08l-0.022,0.079l-0.022,0.079l-0.023,0.078l-0.024,0.078l-0.025,0.078l-0.025,0.078l-0.026,0.078l-0.027,0.077l-0.028,0.076l-0.029,0.077l-0.029,0.076l-0.03,0.076l-0.031,0.076l-0.032,0.075l-0.032,0.075l-0.034,0.075l-0.034,0.074l-0.035,0.075l-0.035,0.073l-0.036,0.074l-0.038,0.073l-0.038,0.073l-0.038,0.073l-0.04,0.072l-0.04,0.072l-0.041,0.072l-0.042,0.072l-0.042,0.071l-0.044,0.07l-0.044,0.071l-0.045,0.07l-0.045,0.07l-0.047,0.07l-0.047,0.069l-0.048,0.069l-0.049,0.069l-0.049,0.068l-0.05,0.068l-0.051,0.067l-0.051,0.068l-0.053,0.066l-0.052,0.066l-0.053,0.065l-0.054,0.065l-0.055,0.064l-0.055,0.064l-0.055,0.063l-0.057,0.062l-0.056,0.062l-0.058,0.062l-0.058,0.06l-0.058,0.061l-0.06,0.06l-0.06,0.059l-0.06,0.059l-0.061,0.058l-0.062,0.058l-0.062,0.057l-0.063,0.056l-0.063,0.056l-0.064,0.056l-0.064,0.054l-0.066,0.055l-0.066,0.053l-0.066,0.053l-0.067,0.053l-0.068,0.052l-0.068,0.052l-0.069,0.051l-0.069,0.05l-0.069,0.05l-0.071,0.049l-0.071,0.049l-0.072,0.048l-0.072,0.048l-0.073,0.047l-0.073,0.046l-0.074,0.046l-0.075,0.046l-0.075,0.044l-0.075,0.044l-0.077,0.044l-0.077,0.043l-0.077,0.043l-0.078,0.042l-0.078,0.041l-0.079,0.041l-0.08,0.041l-0.072,0.035l0.018,0.006l0.104,0.035l0.104,0.035l0.103,0.037l0.102,0.037l0.101,0.039l0.101,0.039l0.099,0.041l0.099,0.041l0.098,0.042l0.098,0.043l0.096,0.044l0.096,0.045l0.095,0.046l0.094,0.047l0.094,0.047l0.092,0.049l0.047,0.025l0.046,0.025l0.045,0.025l0.045,0.025l0.046,0.026l0.089,0.051l0.046,0.027l0.044,0.027l0.044,0.026l0.044,0.027l0.044,0.027l0.044,0.028l0.043,0.027l0.043,0.028l0.044,0.029l0.042,0.028l0.043,0.029l0.043,0.029l0.042,0.029l0.041,0.029l0.042,0.029l0.042,0.03l0.042,0.03l0.041,0.031l0.041,0.03l0.041,0.031l0.041,0.031l0.04,0.031l0.04,0.031l0.04,0.032l0.04,0.032l0.04,0.032l0.039,0.032l0.039,0.033l0.039,0.033l0.039,0.033l0.039,0.033l0.039,0.034l0.037,0.033l0.038,0.034l0.039,0.035l0.037,0.034l0.037,0.034l0.037,0.035l0.037,0.036l0.037,0.035l0.036,0.035l0.037,0.036l0.036,0.036l0.036,0.036l0.036,0.037l0.035,0.036l0.036,0.037l0.035,0.038l0.035,0.037l0.034,0.038l0.034,0.037l0.035,0.038l0.034,0.039l0.034,0.038l0.033,0.039l0.034,0.038l0.033,0.04l0.033,0.039l0.033,0.04l0.032,0.04l0.033,0.04l0.032,0.04l0.032,0.041l0.032,0.041l0.032,0.041l0.031,0.041l0.031,0.041l0.031,0.042l0.031,0.042l0.06,0.083l0.059,0.084l0.059,0.085l0.057,0.085l0.057,0.085l0.056,0.086l0.054,0.087l0.054,0.086l0.053,0.087l0.052,0.088l0.051,0.088l0.05,0.088l0.049,0.089l0.048,0.089l0.047,0.09l0.046,0.09l0.046,0.091l0.044,0.091l0.043,0.091l0.043,0.092l0.041,0.092l0.041,0.093l0.039,0.093l0.039,0.094l0.037,0.094l0.037,0.094l0.036,0.095l0.034,0.095l0.034,0.096l0.033,0.096l0.032,0.096l0.031,0.097l0.03,0.098l0.029,0.097l0.028,0.098l0.027,0.099l0.026,0.099l0.026,0.099l0.024,0.1l0.023,0.1l0.022,0.1l0.022,0.101l0.02,0.102l0.02,0.101l0.018,0.102l0.018,0.103l0.016,0.103l0.016,0.103l0.015,0.103l0.014,0.105l0.012,0.104l0.012,0.105l0.011,0.105l0.01,0.106l0.009,0.106l0.008,0.106l0.007,0.107l0.006,0.107l0.006,0.107l0.004,0.108l0.003,0.109l0.003,0.108l0.001,0.109l0,0.109l0,0.088l0,0.087l-0.002,0.088l-0.001,0.086l-0.002,0.087l-0.003,0.086l-0.003,0.085l-0.003,0.086l-0.004,0.085l-0.004,0.085l-0.005,0.085l-0.005,0.084l-0.006,0.084l-0.006,0.083l-0.006,0.083l-0.007,0.084l-0.008,0.083l-0.007,0.082l-0.009,0.082l-0.009,0.082l-0.009,0.081l-0.009,0.081l-0.011,0.081l-0.01,0.081l-0.011,0.08l-0.012,0.08l-0.012,0.08l-0.012,0.079l-0.013,0.079l-0.013,0.079l-0.014,0.078l-0.014,0.078l-0.015,0.078l-0.015,0.077l-0.016,0.077l-0.016,0.077l-0.016,0.077l-0.017,0.076l-0.018,0.076l-0.018,0.075l-0.018,0.076l-0.019,0.074l-0.019,0.075l-0.02,0.074l-0.02,0.074l-0.021,0.074l-0.021,0.073l-0.022,0.073l-0.021,0.073l-0.023,0.073l-0.023,0.072l-0.023,0.072l-0.024,0.071l-0.025,0.071l-0.024,0.071l-0.026,0.07l-0.025,0.071l-0.027,0.07l-0.026,0.069l-0.027,0.07l-0.028,0.069l-0.028,0.068l-0.028,0.069l-0.029,0.067l-0.03,0.068l-0.03,0.067l-0.03,0.068l-0.031,0.066l-0.031,0.067l-0.032,0.066l-0.032,0.066l-0.033,0.065l-0.032,0.065l-0.034,0.064l-0.034,0.065l-0.035,0.064l-0.034,0.064l-0.036,0.063l-0.036,0.064l-0.036,0.062l-0.037,0.063l-0.037,0.062l-0.038,0.062l-0.038,0.061l-0.039,0.061l-0.039,0.061l-0.039,0.06l-0.04,0.06l-0.041,0.06l-0.041,0.06l-0.041,0.059l-0.042,0.059l-0.042,0.058l-0.043,0.058l-0.043,0.058l-0.044,0.057l-0.044,0.058l-0.045,0.057l-0.045,0.056l-0.045,0.056l-0.046,0.056l-0.047,0.055l-0.046,0.055l-0.048,0.055l-0.047,0.054l-0.049,0.054l-0.049,0.054l-0.049,0.053l-0.049,0.054l-0.05,0.052l-0.05,0.052l-0.052,0.053l-0.051,0.051l-0.052,0.051l-0.052,0.052l-0.053,0.05l-0.053,0.05l-0.054,0.05l-0.054,0.05l-0.054,0.049l-0.055,0.049l-0.055,0.048l-0.056,0.049l-0.057,0.048l-0.056,0.047l-0.058,0.048l-0.057,0.047l-0.058,0.046l-0.058,0.046l-0.059,0.046l-0.059,0.045l-0.059,0.045l-0.06,0.044l-0.06,0.044l-0.06,0.044l-0.061,0.044l-0.061,0.043l-0.061,0.042l-0.062,0.043l-0.062,0.042l-0.062,0.041l-0.063,0.042l-0.064,0.041l-0.062,0.04l-0.064,0.04l-0.064,0.04l-0.065,0.04l-0.064,0.038l-0.065,0.039l-0.066,0.039l-0.065,0.037l-0.066,0.038l-0.067,0.038l-0.067,0.036l-0.066,0.037l-0.068,0.036l-0.068,0.036l-0.068,0.035l-0.068,0.035l-0.069,0.035l-0.069,0.034l-0.069,0.034l-0.07,0.034l-0.07,0.033l-0.07,0.033l-0.071,0.032l-0.071,0.033l-0.072,0.031l-0.071,0.031l-0.072,0.032l-0.073,0.03l-0.072,0.031l-0.073,0.03l-0.074,0.029l-0.073,0.029l-0.074,0.029l-0.075,0.029l-0.074,0.028l-0.075,0.028l-0.076,0.027l-0.075,0.027l-0.077,0.027l-0.075,0.026l-0.077,0.026l-0.077,0.025l-0.077,0.026l-0.078,0.024l-0.078,0.025l-0.078,0.024l-0.079,0.024l-0.079,0.023l-0.079,0.023l-0.079,0.023l-0.08,0.022l-0.081,0.022l-0.08,0.022l-0.081,0.021l-0.081,0.021l-0.082,0.02l-0.081,0.02l-0.083,0.02l-0.082,0.02l-0.083,0.019l-0.083,0.018l-0.083,0.019l-0.084,0.018l-0.084,0.017l-0.085,0.018l-0.085,0.017l-0.085,0.016l-0.085,0.016l-0.086,0.016l-0.086,0.016l-0.086,0.015l-0.087,0.014l-0.087,0.015l-0.088,0.014l-0.087,0.013l-0.088,0.014l-0.088,0.013l-0.089,0.012l-0.089,0.013l-0.089,0.012l-0.09,0.011l-0.09,0.011l-0.09,0.011l-0.091,0.011l-0.091,0.01l-0.091,0.009l-0.092,0.01l-0.092,0.009l-0.091,0.008l-0.093,0.009l-0.093,0.008l-0.093,0.007l-0.094,0.008l-0.094,0.007l-0.094,0.006l-0.094,0.006l-0.095,0.006l-0.095,0.006l-0.096,0.005l-0.095,0.005l-0.096,0.004l-0.097,0.004l-0.096,0.004l-0.097,0.003l-0.098,0.003l-0.098,0.003l-0.098,0.002l-0.098,0.002l-0.099,0.002l-0.099,0.001l-0.099,0.001l-0.1,0l-0.099,0.001l-15.093,0l0,-39.778l13.452,0l0.103,0.001Zm-13.174,0.38l0,39.015l14.711,0l0.099,0l0.098,0l0.098,-0.001l0.098,-0.001l0.097,-0.002l0.097,-0.002l0.097,-0.002l0.096,-0.003l0.096,-0.003l0.096,-0.003l0.095,-0.004l0.095,-0.004l0.094,-0.004l0.095,-0.005l0.094,-0.005l0.093,-0.005l0.094,-0.006l0.093,-0.006l0.092,-0.007l0.093,-0.006l0.092,-0.007l0.091,-0.008l0.092,-0.008l0.091,-0.008l0.09,-0.009l0.09,-0.008l0.09,-0.01l0.09,-0.009l0.089,-0.01l0.089,-0.01l0.089,-0.011l0.088,-0.011l0.088,-0.011l0.088,-0.012l0.087,-0.012l0.087,-0.012l0.087,-0.013l0.086,-0.013l0.086,-0.014l0.086,-0.013l0.085,-0.014l0.085,-0.015l0.085,-0.015l0.084,-0.015l0.084,-0.015l0.083,-0.016l0.084,-0.016l0.083,-0.017l0.082,-0.017l0.083,-0.017l0.082,-0.018l0.081,-0.018l0.081,-0.018l0.081,-0.019l0.081,-0.019l0.08,-0.019l0.08,-0.02l0.08,-0.02l0.079,-0.02l0.079,-0.021l0.079,-0.021l0.078,-0.021l0.078,-0.022l0.078,-0.022l0.077,-0.023l0.077,-0.022l0.077,-0.024l0.076,-0.023l0.076,-0.024l0.075,-0.024l0.076,-0.025l0.075,-0.025l0.074,-0.025l0.075,-0.025l0.074,-0.026l0.073,-0.027l0.073,-0.026l0.073,-0.027l0.073,-0.028l0.072,-0.027l0.072,-0.028l0.072,-0.029l0.071,-0.029l0.071,-0.029l0.071,-0.029l0.07,-0.03l0.07,-0.03l0.07,-0.031l0.069,-0.03l0.069,-0.032l0.068,-0.031l0.069,-0.032l0.068,-0.032l0.067,-0.033l0.068,-0.033l0.066,-0.033l0.067,-0.034l0.066,-0.033l0.066,-0.035l0.066,-0.034l0.065,-0.035l0.065,-0.036l0.065,-0.036l0.064,-0.036l0.064,-0.036l0.064,-0.037l0.063,-0.037l0.063,-0.037l0.062,-0.038l0.063,-0.038l0.062,-0.039l0.061,-0.039l0.062,-0.039l0.06,-0.039l0.061,-0.04l0.06,-0.04l0.06,-0.041l0.06,-0.041l0.059,-0.041l0.059,-0.042l0.059,-0.042l0.058,-0.042l0.058,-0.043l0.058,-0.043l0.057,-0.043l0.057,-0.044l0.056,-0.044l0.057,-0.044l0.056,-0.045l0.055,-0.045l0.055,-0.046l0.055,-0.045l0.054,-0.046l0.053,-0.047l0.054,-0.046l0.052,-0.047l0.053,-0.048l0.052,-0.047l0.051,-0.048l0.051,-0.049l0.051,-0.048l0.05,-0.049l0.05,-0.05l0.049,-0.049l0.049,-0.05l0.049,-0.05l0.048,-0.051l0.047,-0.051l0.047,-0.051l0.047,-0.051l0.046,-0.052l0.046,-0.052l0.045,-0.053l0.045,-0.053l0.045,-0.053l0.044,-0.053l0.043,-0.054l0.044,-0.054l0.042,-0.055l0.043,-0.054l0.041,-0.055l0.042,-0.056l0.041,-0.055l0.04,-0.056l0.04,-0.057l0.04,-0.056l0.039,-0.057l0.039,-0.058l0.039,-0.057l0.037,-0.058l0.038,-0.059l0.037,-0.058l0.037,-0.059l0.036,-0.059l0.035,-0.06l0.036,-0.06l0.035,-0.06l0.034,-0.061l0.034,-0.061l0.033,-0.061l0.034,-0.061l0.032,-0.062l0.032,-0.062l0.032,-0.063l0.032,-0.062l0.03,-0.064l0.031,-0.063l0.03,-0.064l0.03,-0.064l0.029,-0.064l0.028,-0.065l0.029,-0.065l0.027,-0.065l0.028,-0.066l0.027,-0.066l0.026,-0.066l0.026,-0.067l0.026,-0.067l0.025,-0.067l0.025,-0.068l0.024,-0.068l0.024,-0.068l0.024,-0.069l0.023,-0.069l0.022,-0.069l0.022,-0.07l0.022,-0.069l0.021,-0.071l0.021,-0.07l0.021,-0.071l0.02,-0.071l0.019,-0.072l0.019,-0.071l0.019,-0.073l0.018,-0.072l0.018,-0.073l0.017,-0.073l0.017,-0.073l0.016,-0.074l0.016,-0.074l0.016,-0.075l0.015,-0.074l0.015,-0.075l0.014,-0.076l0.014,-0.075l0.013,-0.076l0.013,-0.077l0.012,-0.076l0.013,-0.077l0.011,-0.078l0.011,-0.077l0.011,-0.078l0.01,-0.078l0.01,-0.079l0.01,-0.079l0.009,-0.079l0.008,-0.08l0.008,-0.08l0.008,-0.08l0.007,-0.08l0.007,-0.081l0.006,-0.081l0.006,-0.082l0.006,-0.082l0.005,-0.082l0.004,-0.082l0.005,-0.083l0.003,-0.083l0.004,-0.083l0.002,-0.084l0.003,-0.084l0.002,-0.085l0.001,-0.084l0.001,-0.085l0.001,-0.086l0,-0.085l0,-0.106l-0.002,-0.106l-0.002,-0.106l-0.003,-0.104l-0.004,-0.105l-0.005,-0.104l-0.006,-0.104l-0.007,-0.103l-0.008,-0.103l-0.008,-0.103l-0.01,-0.102l-0.011,-0.101l-0.011,-0.102l-0.012,-0.1l-0.014,-0.101l-0.014,-0.1l-0.015,-0.1l-0.016,-0.099l-0.017,-0.099l-0.018,-0.098l-0.019,-0.098l-0.019,-0.098l-0.021,-0.097l-0.021,-0.097l-0.023,-0.096l-0.023,-0.096l-0.025,-0.096l-0.025,-0.095l-0.026,-0.095l-0.027,-0.094l-0.028,-0.094l-0.029,-0.094l-0.029,-0.093l-0.031,-0.093l-0.032,-0.092l-0.032,-0.092l-0.034,-0.092l-0.034,-0.091l-0.035,-0.09l-0.036,-0.091l-0.037,-0.09l-0.038,-0.089l-0.039,-0.089l-0.04,-0.089l-0.041,-0.088l-0.042,-0.088l-0.042,-0.088l-0.044,-0.087l-0.044,-0.086l-0.046,-0.087l-0.046,-0.086l-0.047,-0.085l-0.048,-0.085l-0.049,-0.085l-0.05,-0.084l-0.051,-0.084l-0.052,-0.083l-0.052,-0.083l-0.054,-0.083l-0.054,-0.082l-0.056,-0.082l-0.056,-0.081l-0.057,-0.081l-0.058,-0.081l-0.03,-0.04l-0.029,-0.04l-0.03,-0.039l-0.03,-0.04l-0.03,-0.039l-0.031,-0.039l-0.03,-0.039l-0.031,-0.038l-0.031,-0.039l-0.031,-0.038l-0.032,-0.038l-0.031,-0.037l-0.032,-0.038l-0.032,-0.037l-0.032,-0.037l-0.032,-0.037l-0.033,-0.036l-0.033,-0.037l-0.033,-0.036l-0.033,-0.036l-0.033,-0.036l-0.034,-0.035l-0.033,-0.035l-0.034,-0.035l-0.034,-0.035l-0.035,-0.035l-0.034,-0.034l-0.035,-0.034l-0.035,-0.034l-0.035,-0.034l-0.035,-0.034l-0.036,-0.033l-0.035,-0.033l-0.036,-0.033l-0.036,-0.032l-0.037,-0.033l-0.036,-0.032l-0.037,-0.032l-0.037,-0.032l-0.037,-0.031l-0.037,-0.032l-0.037,-0.031l-0.038,-0.031l-0.038,-0.03l-0.038,-0.031l-0.038,-0.03l-0.039,-0.03l-0.038,-0.03l-0.039,-0.029l-0.039,-0.03l-0.039,-0.029l-0.04,-0.029l-0.039,-0.028l-0.04,-0.029l-0.04,-0.028l-0.04,-0.028l-0.041,-0.028l-0.04,-0.027l-0.041,-0.028l-0.041,-0.027l-0.041,-0.027l-0.042,-0.027l-0.041,-0.026l-0.042,-0.026l-0.042,-0.026l-0.042,-0.026l-0.043,-0.026l-0.042,-0.025l-0.043,-0.026l-0.043,-0.024l-0.043,-0.025l-0.043,-0.025l-0.044,-0.024l-0.044,-0.024l-0.043,-0.024l-0.045,-0.024l-0.088,-0.046l-0.09,-0.046l-0.09,-0.045l-0.092,-0.044l-0.092,-0.043l-0.092,-0.042l-0.094,-0.042l-0.094,-0.04l-0.095,-0.04l-0.096,-0.039l-0.097,-0.037l-0.098,-0.037l-0.098,-0.037l-0.099,-0.035l-0.1,-0.034l-0.1,-0.034l-0.102,-0.032l-0.102,-0.032l-0.103,-0.031l-0.104,-0.03l-0.104,-0.029l-0.105,-0.028l-0.107,-0.028l-0.106,-0.026l-0.108,-0.026l-0.109,-0.024l0.085,-0.032l0.083,-0.033l0.084,-0.033l0.082,-0.034l0.082,-0.034l0.081,-0.035l0.081,-0.035l0.081,-0.036l0.079,-0.036l0.079,-0.037l0.079,-0.037l0.078,-0.038l0.077,-0.038l0.077,-0.039l0.076,-0.04l0.076,-0.039l0.075,-0.041l0.074,-0.041l0.074,-0.041l0.074,-0.042l0.073,-0.043l0.072,-0.043l0.071,-0.044l0.071,-0.044l0.071,-0.044l0.07,-0.046l0.069,-0.045l0.069,-0.046l0.068,-0.047l0.068,-0.047l0.067,-0.048l0.066,-0.049l0.066,-0.048l0.065,-0.05l0.065,-0.05l0.064,-0.05l0.064,-0.051l0.063,-0.051l0.062,-0.052l0.062,-0.053l0.061,-0.053l0.061,-0.053l0.06,-0.054l0.059,-0.055l0.059,-0.055l0.059,-0.056l0.058,-0.056l0.057,-0.057l0.056,-0.057l0.057,-0.058l0.055,-0.058l0.055,-0.059l0.054,-0.059l0.054,-0.06l0.053,-0.06l0.053,-0.061l0.052,-0.061l0.051,-0.062l0.051,-0.063l0.051,-0.063l0.049,-0.063l0.05,-0.064l0.048,-0.065l0.048,-0.065l0.048,-0.065l0.046,-0.066l0.046,-0.066l0.045,-0.066l0.044,-0.067l0.044,-0.066l0.043,-0.068l0.042,-0.067l0.042,-0.068l0.04,-0.068l0.04,-0.068l0.039,-0.068l0.039,-0.069l0.037,-0.069l0.037,-0.069l0.036,-0.07l0.036,-0.07l0.034,-0.07l0.034,-0.07l0.034,-0.071l0.032,-0.071l0.032,-0.071l0.031,-0.072l0.03,-0.071l0.029,-0.072l0.029,-0.073l0.028,-0.072l0.027,-0.073l0.027,-0.073l0.025,-0.074l0.025,-0.073l0.025,-0.074l0.023,-0.075l0.023,-0.074l0.022,-0.075l0.021,-0.075l0.021,-0.075l0.019,-0.076l0.019,-0.076l0.019,-0.076l0.017,-0.077l0.017,-0.076l0.016,-0.077l0.015,-0.077l0.015,-0.078l0.014,-0.078l0.013,-0.078l0.012,-0.078l0.012,-0.079l0.01,-0.079l0.011,-0.079l0.009,-0.08l0.008,-0.079l0.008,-0.08l0.007,-0.081l0.007,-0.08l0.005,-0.081l0.005,-0.081l0.004,-0.081l0.004,-0.082l0.002,-0.082l0.002,-0.082l0.001,-0.083l0.001,-0.083l-0.001,-0.082l0,-0.083l-0.001,-0.082l-0.002,-0.082l-0.002,-0.081l-0.002,-0.081l-0.003,-0.081l-0.004,-0.08l-0.003,-0.081l-0.005,-0.079l-0.004,-0.08l-0.006,-0.079l-0.005,-0.079l-0.006,-0.079l-0.007,-0.078l-0.006,-0.078l-0.008,-0.077l-0.008,-0.078l-0.008,-0.076l-0.008,-0.077l-0.01,-0.076l-0.009,-0.076l-0.01,-0.076l-0.011,-0.075l-0.01,-0.075l-0.012,-0.075l-0.012,-0.074l-0.012,-0.074l-0.013,-0.074l-0.013,-0.074l-0.013,-0.073l-0.014,-0.072l-0.015,-0.073l-0.015,-0.072l-0.015,-0.072l-0.016,-0.071l-0.016,-0.071l-0.017,-0.071l-0.017,-0.071l-0.017,-0.07l-0.018,-0.07l-0.019,-0.069l-0.019,-0.069l-0.019,-0.069l-0.02,-0.069l-0.02,-0.068l-0.021,-0.068l-0.021,-0.068l-0.022,-0.067l-0.022,-0.067l-0.022,-0.066l-0.023,-0.067l-0.023,-0.066l-0.024,-0.065l-0.024,-0.066l-0.025,-0.065l-0.025,-0.064l-0.026,-0.065l-0.026,-0.064l-0.026,-0.064l-0.027,-0.063l-0.027,-0.063l-0.028,-0.063l-0.029,-0.062l-0.028,-0.062l-0.029,-0.062l-0.03,-0.062l-0.03,-0.061l-0.03,-0.061l-0.031,-0.06l-0.032,-0.06l-0.032,-0.06l-0.032,-0.06l-0.032,-0.059l-0.034,-0.059l-0.033,-0.058l-0.034,-0.059l-0.035,-0.058l-0.035,-0.057l-0.035,-0.058l-0.036,-0.056l-0.036,-0.057l-0.037,-0.056l-0.037,-0.056l-0.038,-0.056l-0.038,-0.055l-0.038,-0.055l-0.039,-0.055l-0.039,-0.055l-0.04,-0.054l-0.04,-0.053l-0.041,-0.054l-0.041,-0.053l-0.042,-0.053l-0.042,-0.052l-0.042,-0.052l-0.043,-0.052l-0.044,-0.052l-0.043,-0.051l-0.045,-0.051l-0.044,-0.05l-0.046,-0.05l-0.045,-0.05l-0.046,-0.05l-0.047,-0.049l-0.047,-0.049l-0.047,-0.048l-0.048,-0.049l-0.048,-0.048l-0.049,-0.047l-0.049,-0.048l-0.05,-0.047l-0.05,-0.046l-0.05,-0.047l-0.051,-0.046l-0.051,-0.045l-0.052,-0.046l-0.053,-0.045l-0.052,-0.044l-0.053,-0.045l-0.054,-0.044l-0.054,-0.044l-0.055,-0.043l-0.055,-0.043l-0.055,-0.043l-0.056,-0.042l-0.056,-0.043l-0.057,-0.041l-0.057,-0.042l-0.057,-0.041l-0.058,-0.041l-0.058,-0.04l-0.059,-0.041l-0.059,-0.039l-0.059,-0.04l-0.059,-0.039l-0.06,-0.039l-0.06,-0.039l-0.061,-0.038l-0.061,-0.038l-0.061,-0.037l-0.062,-0.038l-0.062,-0.037l-0.062,-0.036l-0.063,-0.037l-0.063,-0.035l-0.063,-0.036l-0.064,-0.035l-0.064,-0.035l-0.064,-0.035l-0.065,-0.034l-0.065,-0.034l-0.066,-0.034l-0.065,-0.033l-0.067,-0.033l-0.066,-0.033l-0.067,-0.033l-0.067,-0.032l-0.067,-0.031l-0.068,-0.032l-0.069,-0.031l-0.068,-0.031l-0.069,-0.03l-0.069,-0.03l-0.07,-0.03l-0.07,-0.029l-0.07,-0.03l-0.071,-0.028l-0.071,-0.029l-0.071,-0.028l-0.072,-0.028l-0.072,-0.027l-0.072,-0.027l-0.073,-0.027l-0.073,-0.027l-0.073,-0.026l-0.074,-0.026l-0.074,-0.025l-0.075,-0.026l-0.074,-0.025l-0.076,-0.024l-0.075,-0.024l-0.076,-0.024l-0.076,-0.024l-0.077,-0.023l-0.077,-0.023l-0.077,-0.023l-0.077,-0.022l-0.078,-0.022l-0.078,-0.022l-0.079,-0.021l-0.079,-0.021l-0.079,-0.021l-0.08,-0.02l-0.08,-0.02l-0.08,-0.02l-0.081,-0.019l-0.081,-0.019l-0.081,-0.019l-0.082,-0.018l-0.082,-0.018l-0.083,-0.018l-0.082,-0.017l-0.084,-0.017l-0.083,-0.017l-0.084,-0.017l-0.084,-0.016l-0.085,-0.016l-0.084,-0.015l-0.086,-0.015l-0.085,-0.015l-0.086,-0.014l-0.086,-0.015l-0.087,-0.013l-0.087,-0.014l-0.087,-0.013l-0.088,-0.013l-0.088,-0.013l-0.088,-0.012l-0.089,-0.012l-0.089,-0.011l-0.089,-0.011l-0.09,-0.011l-0.09,-0.011l-0.09,-0.01l-0.091,-0.01l-0.091,-0.01l-0.091,-0.009l-0.092,-0.009l-0.092,-0.009l-0.093,-0.008l-0.093,-0.008l-0.093,-0.007l-0.093,-0.008l-0.094,-0.007l-0.094,-0.006l-0.095,-0.007l-0.095,-0.006l-0.095,-0.005l-0.096,-0.006l-0.096,-0.005l-0.096,-0.005l-0.097,-0.004l-0.097,-0.004l-0.097,-0.004l-0.098,-0.003l-0.098,-0.003l-0.098,-0.003l-0.099,-0.003l-0.099,-0.002l-0.099,-0.001l-0.1,-0.002l-0.1,-0.001l-0.101,-0.001l-0.1,0l-0.102,-0.001l-12.969,0Zm15.536,21.277l0.1,0.001l0.099,0.002l0.098,0.003l0.098,0.004l0.097,0.005l0.095,0.005l0.095,0.006l0.095,0.007l0.093,0.008l0.093,0.009l0.091,0.01l0.091,0.01l0.09,0.012l0.089,0.012l0.089,0.013l0.087,0.013l0.087,0.015l0.086,0.016l0.085,0.016l0.084,0.017l0.083,0.018l0.083,0.019l0.081,0.02l0.081,0.02l0.08,0.021l0.079,0.023l0.078,0.023l0.078,0.024l0.076,0.024l0.076,0.026l0.075,0.026l0.074,0.027l0.074,0.028l0.072,0.029l0.072,0.03l0.07,0.031l0.07,0.031l0.069,0.032l0.069,0.033l0.067,0.034l0.067,0.035l0.065,0.036l0.065,0.036l0.032,0.019l0.032,0.018l0.032,0.019l0.032,0.019l0.031,0.02l0.031,0.019l0.031,0.02l0.03,0.02l0.031,0.02l0.03,0.021l0.03,0.02l0.03,0.021l0.03,0.021l0.029,0.021l0.029,0.022l0.029,0.022l0.029,0.021l0.029,0.023l0.028,0.022l0.028,0.022l0.028,0.023l0.028,0.023l0.027,0.023l0.028,0.023l0.027,0.024l0.027,0.024l0.026,0.024l0.027,0.024l0.026,0.024l0.026,0.025l0.026,0.025l0.026,0.025l0.025,0.025l0.025,0.025l0.025,0.026l0.025,0.026l0.025,0.026l0.024,0.026l0.024,0.027l0.024,0.026l0.048,0.054l0.046,0.055l0.046,0.055l0.045,0.056l0.045,0.057l0.043,0.057l0.043,0.058l0.042,0.059l0.042,0.059l0.04,0.06l0.04,0.061l0.039,0.061l0.039,0.063l0.037,0.062l0.037,0.064l0.037,0.064l0.035,0.065l0.035,0.065l0.034,0.066l0.033,0.067l0.032,0.068l0.032,0.068l0.031,0.069l0.03,0.07l0.03,0.07l0.028,0.071l0.028,0.071l0.027,0.073l0.027,0.073l0.026,0.073l0.025,0.075l0.024,0.075l0.023,0.075l0.023,0.077l0.022,0.077l0.021,0.078l0.021,0.078l0.02,0.079l0.019,0.08l0.018,0.08l0.017,0.081l0.017,0.082l0.016,0.083l0.016,0.083l0.014,0.084l0.014,0.084l0.013,0.086l0.012,0.086l0.012,0.086l0.011,0.087l0.01,0.088l0.009,0.089l0.009,0.089l0.007,0.09l0.007,0.091l0.007,0.091l0.005,0.092l0.005,0.093l0.004,0.093l0.004,0.095l0.002,0.094l0.002,0.096l0.001,0.096l0.001,0.097l-0.001,0.091l-0.001,0.09l-0.002,0.089l-0.003,0.089l-0.004,0.089l-0.005,0.087l-0.006,0.087l-0.007,0.086l-0.007,0.086l-0.009,0.085l-0.009,0.084l-0.01,0.083l-0.011,0.083l-0.013,0.082l-0.012,0.082l-0.014,0.081l-0.015,0.08l-0.015,0.079l-0.017,0.079l-0.017,0.078l-0.018,0.078l-0.02,0.077l-0.02,0.076l-0.021,0.075l-0.021,0.075l-0.023,0.074l-0.024,0.073l-0.024,0.073l-0.025,0.072l-0.027,0.072l-0.027,0.07l-0.028,0.07l-0.029,0.07l-0.03,0.068l-0.03,0.069l-0.032,0.067l-0.032,0.067l-0.034,0.066l-0.034,0.065l-0.035,0.065l-0.036,0.064l-0.037,0.063l-0.038,0.062l-0.039,0.062l-0.039,0.062l-0.041,0.06l-0.041,0.06l-0.042,0.06l-0.043,0.058l-0.044,0.058l-0.045,0.057l-0.046,0.057l-0.047,0.056l-0.048,0.055l-0.048,0.055l-0.049,0.053l-0.051,0.054l-0.051,0.052l-0.052,0.052l-0.053,0.051l-0.054,0.051l-0.054,0.05l-0.056,0.049l-0.056,0.048l-0.058,0.048l-0.058,0.047l-0.059,0.046l-0.059,0.046l-0.061,0.045l-0.061,0.044l-0.062,0.043l-0.062,0.042l-0.064,0.042l-0.064,0.041l-0.065,0.04l-0.065,0.04l-0.067,0.039l-0.067,0.038l-0.068,0.037l-0.069,0.036l-0.069,0.036l-0.07,0.035l-0.071,0.034l-0.072,0.034l-0.073,0.032l-0.073,0.032l-0.074,0.032l-0.075,0.03l-0.075,0.03l-0.076,0.029l-0.077,0.028l-0.078,0.027l-0.079,0.027l-0.079,0.026l-0.08,0.025l-0.081,0.025l-0.082,0.023l-0.082,0.023l-0.083,0.023l-0.084,0.021l-0.085,0.021l-0.085,0.02l-0.086,0.019l-0.087,0.018l-0.088,0.018l-0.088,0.017l-0.089,0.016l-0.09,0.015l-0.091,0.015l-0.092,0.014l-0.092,0.013l-0.093,0.013l-0.094,0.011l-0.094,0.011l-0.095,0.01l-0.096,0.01l-0.097,0.008l-0.098,0.008l-0.098,0.007l-0.099,0.007l-0.1,0.006l-0.1,0.004l-0.102,0.005l-0.102,0.003l-0.103,0.003l-0.103,0.001l-0.105,0.002l-0.105,0l-8.199,0l0,-12.541l8.923,0l0.101,0.001Zm-8.643,0.38l0,11.779l7.818,0l0.103,0l0.101,-0.002l0.101,-0.001l0.1,-0.003l0.1,-0.003l0.097,-0.004l0.098,-0.005l0.097,-0.006l0.096,-0.006l0.095,-0.007l0.094,-0.007l0.094,-0.009l0.093,-0.009l0.092,-0.01l0.091,-0.01l0.09,-0.011l0.09,-0.012l0.089,-0.013l0.088,-0.013l0.087,-0.014l0.086,-0.015l0.086,-0.016l0.085,-0.016l0.084,-0.017l0.082,-0.017l0.083,-0.019l0.082,-0.019l0.081,-0.02l0.079,-0.02l0.08,-0.021l0.078,-0.022l0.077,-0.023l0.078,-0.023l0.075,-0.024l0.076,-0.024l0.074,-0.026l0.073,-0.026l0.074,-0.027l0.072,-0.027l0.071,-0.028l0.07,-0.028l0.07,-0.03l0.069,-0.03l0.068,-0.03l0.067,-0.032l0.067,-0.032l0.066,-0.033l0.065,-0.033l0.064,-0.034l0.064,-0.036l0.063,-0.035l0.061,-0.036l0.062,-0.037l0.06,-0.037l0.06,-0.038l0.059,-0.04l0.059,-0.039l0.057,-0.04l0.056,-0.041l0.057,-0.042l0.055,-0.042l0.054,-0.043l0.054,-0.044l0.054,-0.044l0.052,-0.045l0.051,-0.045l0.051,-0.046l0.049,-0.047l0.049,-0.047l0.048,-0.047l0.047,-0.049l0.047,-0.049l0.045,-0.05l0.045,-0.05l0.044,-0.051l0.043,-0.051l0.042,-0.052l0.041,-0.053l0.04,-0.053l0.04,-0.054l0.039,-0.055l0.038,-0.055l0.038,-0.056l0.036,-0.056l0.035,-0.057l0.035,-0.058l0.034,-0.058l0.033,-0.059l0.033,-0.059l0.032,-0.061l0.03,-0.061l0.03,-0.061l0.03,-0.063l0.028,-0.063l0.028,-0.064l0.027,-0.064l0.025,-0.065l0.025,-0.065l0.025,-0.067l0.024,-0.067l0.022,-0.068l0.022,-0.068l0.021,-0.069l0.021,-0.07l0.02,-0.071l0.018,-0.071l0.018,-0.072l0.017,-0.073l0.017,-0.073l0.015,-0.074l0.015,-0.075l0.014,-0.076l0.013,-0.076l0.012,-0.077l0.011,-0.078l0.011,-0.078l0.009,-0.079l0.009,-0.08l0.008,-0.081l0.007,-0.081l0.007,-0.083l0.005,-0.082l0.005,-0.084l0.004,-0.084l0.003,-0.085l0.002,-0.086l0.001,-0.086l0.001,-0.088l-0.001,-0.093l-0.001,-0.093l-0.002,-0.093l-0.002,-0.091l-0.003,-0.091l-0.004,-0.091l-0.005,-0.089l-0.005,-0.089l-0.007,-0.088l-0.006,-0.087l-0.008,-0.087l-0.008,-0.086l-0.009,-0.085l-0.01,-0.085l-0.01,-0.083l-0.011,-0.083l-0.012,-0.082l-0.013,-0.082l-0.013,-0.081l-0.014,-0.08l-0.014,-0.079l-0.015,-0.079l-0.016,-0.078l-0.017,-0.077l-0.018,-0.077l-0.018,-0.076l-0.018,-0.075l-0.02,-0.074l-0.02,-0.074l-0.021,-0.073l-0.021,-0.072l-0.022,-0.071l-0.023,-0.071l-0.024,-0.07l-0.024,-0.07l-0.025,-0.068l-0.026,-0.068l-0.026,-0.067l-0.027,-0.067l-0.028,-0.066l-0.028,-0.065l-0.029,-0.064l-0.029,-0.064l-0.031,-0.064l-0.03,-0.062l-0.032,-0.061l-0.033,-0.062l-0.033,-0.06l-0.033,-0.06l-0.035,-0.059l-0.035,-0.058l-0.035,-0.058l-0.037,-0.057l-0.037,-0.056l-0.038,-0.056l-0.038,-0.055l-0.039,-0.054l-0.04,-0.054l-0.04,-0.053l-0.041,-0.053l-0.042,-0.052l-0.042,-0.05l-0.044,-0.051l-0.044,-0.051l-0.021,-0.024l-0.022,-0.023l-0.022,-0.024l-0.023,-0.024l-0.022,-0.024l-0.024,-0.024l-0.023,-0.023l-0.022,-0.023l-0.024,-0.023l-0.023,-0.022l-0.024,-0.022l-0.025,-0.023l-0.024,-0.022l-0.023,-0.021l-0.025,-0.022l-0.026,-0.022l-0.023,-0.021l-0.025,-0.02l-0.027,-0.023l-0.026,-0.02l-0.024,-0.02l-0.027,-0.021l-0.026,-0.02l-0.026,-0.02l-0.026,-0.02l-0.027,-0.019l-0.028,-0.02l-0.026,-0.019l-0.028,-0.019l-0.028,-0.02l-0.027,-0.018l-0.027,-0.018l-0.03,-0.019l-0.028,-0.018l-0.027,-0.018l-0.03,-0.018l-0.029,-0.018l-0.028,-0.017l-0.029,-0.016l-0.03,-0.018l-0.061,-0.034l-0.06,-0.032l-0.061,-0.032l-0.063,-0.032l-0.063,-0.031l-0.064,-0.029l-0.065,-0.03l-0.066,-0.028l-0.067,-0.028l-0.067,-0.027l-0.068,-0.026l-0.069,-0.025l-0.071,-0.025l-0.071,-0.024l-0.072,-0.023l-0.073,-0.022l-0.073,-0.022l-0.074,-0.021l-0.076,-0.02l-0.076,-0.019l-0.077,-0.019l-0.079,-0.018l-0.079,-0.017l-0.08,-0.016l-0.08,-0.016l-0.081,-0.014l-0.083,-0.014l-0.084,-0.014l-0.084,-0.012l-0.085,-0.012l-0.086,-0.01l-0.088,-0.01l-0.088,-0.01l-0.088,-0.008l-0.09,-0.008l-0.091,-0.007l-0.091,-0.006l-0.093,-0.005l-0.092,-0.004l-0.095,-0.004l-0.095,-0.003l-0.096,-0.002l-0.097,-0.001l-0.098,-0.001l-8.541,0Zm6.187,-16.431l0.11,0.001l0.11,0.002l0.108,0.002l0.108,0.003l0.107,0.004l0.106,0.005l0.105,0.005l0.104,0.006l0.103,0.006l0.103,0.007l0.102,0.008l0.1,0.009l0.101,0.009l0.099,0.01l0.098,0.011l0.098,0.011l0.096,0.012l0.096,0.013l0.095,0.013l0.095,0.014l0.093,0.015l0.092,0.015l0.092,0.017l0.091,0.016l0.09,0.018l0.089,0.018l0.089,0.019l0.087,0.02l0.087,0.02l0.086,0.021l0.085,0.021l0.084,0.023l0.083,0.023l0.083,0.023l0.081,0.025l0.081,0.025l0.08,0.026l0.079,0.026l0.078,0.027l0.078,0.028l0.076,0.029l0.076,0.029l0.075,0.03l0.074,0.03l0.074,0.031l0.072,0.032l0.072,0.033l0.07,0.033l0.07,0.034l0.069,0.035l0.069,0.035l0.067,0.036l0.067,0.037l0.065,0.038l0.065,0.038l0.064,0.039l0.063,0.039l0.063,0.04l0.061,0.041l0.061,0.042l0.06,0.042l0.059,0.043l0.058,0.043l0.058,0.045l0.056,0.045l0.055,0.046l0.055,0.046l0.054,0.047l0.026,0.024l0.027,0.024l0.026,0.025l0.026,0.024l0.025,0.025l0.026,0.024l0.025,0.025l0.025,0.026l0.024,0.025l0.025,0.025l0.024,0.026l0.024,0.026l0.024,0.026l0.024,0.026l0.023,0.027l0.023,0.026l0.023,0.027l0.023,0.027l0.022,0.027l0.022,0.028l0.022,0.027l0.022,0.028l0.022,0.028l0.021,0.028l0.021,0.028l0.021,0.028l0.021,0.029l0.02,0.029l0.02,0.029l0.02,0.029l0.02,0.029l0.019,0.03l0.02,0.029l0.019,0.03l0.019,0.03l0.018,0.031l0.019,0.03l0.018,0.031l0.018,0.03l0.018,0.031l0.034,0.063l0.034,0.063l0.033,0.064l0.032,0.065l0.031,0.065l0.031,0.066l0.029,0.067l0.028,0.068l0.028,0.068l0.026,0.069l0.026,0.07l0.025,0.07l0.024,0.071l0.023,0.072l0.022,0.073l0.021,0.073l0.021,0.074l0.019,0.075l0.019,0.076l0.017,0.076l0.017,0.077l0.016,0.078l0.015,0.078l0.014,0.079l0.013,0.08l0.012,0.081l0.011,0.081l0.011,0.082l0.009,0.083l0.009,0.084l0.007,0.084l0.007,0.085l0.006,0.086l0.005,0.086l0.004,0.087l0.003,0.088l0.002,0.089l0.002,0.089l0,0.09l0,0.082l-0.002,0.081l-0.002,0.081l-0.003,0.08l-0.004,0.079l-0.004,0.079l-0.006,0.078l-0.006,0.078l-0.008,0.077l-0.008,0.077l-0.009,0.076l-0.01,0.075l-0.01,0.075l-0.012,0.074l-0.012,0.074l-0.014,0.073l-0.014,0.072l-0.015,0.072l-0.016,0.071l-0.016,0.071l-0.018,0.07l-0.018,0.07l-0.02,0.069l-0.02,0.068l-0.021,0.068l-0.022,0.067l-0.022,0.067l-0.024,0.066l-0.024,0.065l-0.026,0.065l-0.026,0.064l-0.027,0.064l-0.028,0.063l-0.028,0.063l-0.03,0.062l-0.03,0.061l-0.031,0.061l-0.033,0.06l-0.033,0.06l-0.033,0.059l-0.035,0.058l-0.036,0.058l-0.036,0.058l-0.037,0.056l-0.039,0.057l-0.039,0.055l-0.039,0.055l-0.041,0.054l-0.042,0.054l-0.042,0.054l-0.043,0.052l-0.045,0.052l-0.045,0.052l-0.045,0.051l-0.047,0.05l-0.048,0.05l-0.048,0.049l-0.049,0.049l-0.05,0.048l-0.051,0.047l-0.052,0.047l-0.053,0.046l-0.054,0.046l-0.054,0.045l-0.055,0.044l-0.056,0.044l-0.056,0.043l-0.057,0.042l-0.058,0.042l-0.058,0.041l-0.059,0.04l-0.06,0.04l-0.06,0.039l-0.061,0.038l-0.061,0.037l-0.062,0.037l-0.063,0.036l-0.063,0.035l-0.064,0.035l-0.064,0.034l-0.065,0.033l-0.066,0.033l-0.066,0.032l-0.067,0.031l-0.068,0.03l-0.068,0.03l-0.069,0.029l-0.069,0.028l-0.07,0.028l-0.071,0.027l-0.071,0.026l-0.072,0.026l-0.073,0.025l-0.073,0.024l-0.074,0.023l-0.074,0.023l-0.075,0.022l-0.076,0.021l-0.076,0.021l-0.077,0.02l-0.078,0.019l-0.078,0.019l-0.079,0.018l-0.079,0.017l-0.08,0.016l-0.081,0.016l-0.081,0.015l-0.082,0.014l-0.082,0.014l-0.084,0.013l-0.083,0.012l-0.085,0.012l-0.085,0.011l-0.085,0.01l-0.087,0.009l-0.086,0.009l-0.088,0.008l-0.088,0.007l-0.089,0.007l-0.089,0.006l-0.09,0.005l-0.091,0.005l-0.091,0.004l-0.092,0.003l-0.092,0.002l-0.093,0.002l-0.094,0.001l-0.094,0l-7.181,0l0,-11.2l6.457,0l0.111,0Zm-6.187,0.381l0,10.438l6.799,0l0.093,0l0.09,-0.001l0.09,-0.002l0.09,-0.002l0.089,-0.003l0.088,-0.004l0.088,-0.004l0.086,-0.005l0.086,-0.006l0.086,-0.007l0.085,-0.007l0.084,-0.007l0.083,-0.009l0.083,-0.009l0.083,-0.01l0.082,-0.01l0.08,-0.011l0.08,-0.012l0.08,-0.012l0.079,-0.013l0.079,-0.014l0.077,-0.014l0.077,-0.015l0.076,-0.016l0.076,-0.016l0.075,-0.018l0.074,-0.017l0.074,-0.018l0.073,-0.019l0.073,-0.02l0.071,-0.02l0.071,-0.021l0.07,-0.022l0.071,-0.022l0.069,-0.023l0.068,-0.023l0.068,-0.024l0.067,-0.025l0.067,-0.025l0.066,-0.026l0.065,-0.027l0.064,-0.027l0.065,-0.028l0.063,-0.029l0.062,-0.029l0.063,-0.03l0.061,-0.03l0.061,-0.031l0.061,-0.032l0.059,-0.033l0.059,-0.032l0.059,-0.034l0.058,-0.034l0.057,-0.035l0.056,-0.036l0.056,-0.036l0.056,-0.037l0.055,-0.037l0.054,-0.038l0.053,-0.039l0.054,-0.039l0.052,-0.04l0.052,-0.041l0.051,-0.041l0.05,-0.042l0.05,-0.042l0.048,-0.043l0.048,-0.043l0.047,-0.044l0.046,-0.044l0.045,-0.044l0.045,-0.046l0.044,-0.045l0.042,-0.046l0.042,-0.047l0.042,-0.047l0.04,-0.048l0.04,-0.048l0.039,-0.049l0.037,-0.049l0.038,-0.05l0.036,-0.05l0.036,-0.051l0.035,-0.051l0.034,-0.052l0.033,-0.052l0.032,-0.053l0.032,-0.054l0.031,-0.054l0.03,-0.055l0.03,-0.055l0.029,-0.056l0.027,-0.056l0.028,-0.057l0.026,-0.057l0.025,-0.058l0.025,-0.059l0.024,-0.058l0.024,-0.061l0.022,-0.06l0.022,-0.061l0.021,-0.061l0.02,-0.063l0.019,-0.062l0.019,-0.063l0.018,-0.064l0.017,-0.065l0.016,-0.065l0.016,-0.066l0.015,-0.067l0.014,-0.066l0.013,-0.068l0.012,-0.068l0.012,-0.069l0.011,-0.07l0.01,-0.07l0.009,-0.071l0.009,-0.071l0.007,-0.072l0.007,-0.072l0.006,-0.074l0.005,-0.074l0.005,-0.074l0.004,-0.076l0.002,-0.075l0.002,-0.077l0.002,-0.077l0,-0.078l0,-0.086l-0.002,-0.085l-0.002,-0.085l-0.003,-0.084l-0.004,-0.083l-0.004,-0.082l-0.006,-0.082l-0.007,-0.081l-0.007,-0.08l-0.008,-0.079l-0.009,-0.078l-0.01,-0.078l-0.01,-0.077l-0.012,-0.075l-0.012,-0.075l-0.013,-0.075l-0.014,-0.074l-0.015,-0.073l-0.016,-0.072l-0.016,-0.071l-0.018,-0.071l-0.018,-0.07l-0.019,-0.069l-0.019,-0.067l-0.021,-0.068l-0.021,-0.067l-0.022,-0.066l-0.023,-0.065l-0.024,-0.064l-0.025,-0.064l-0.025,-0.063l-0.026,-0.062l-0.027,-0.062l-0.028,-0.061l-0.029,-0.06l-0.029,-0.059l-0.03,-0.058l-0.031,-0.058l-0.033,-0.059l-0.015,-0.027l-0.016,-0.027l-0.017,-0.029l-0.017,-0.028l-0.017,-0.027l-0.017,-0.028l-0.018,-0.028l-0.017,-0.026l-0.018,-0.027l-0.018,-0.027l-0.018,-0.027l-0.018,-0.026l-0.02,-0.027l-0.018,-0.025l-0.019,-0.026l-0.019,-0.026l-0.02,-0.026l-0.019,-0.025l-0.02,-0.025l-0.021,-0.026l-0.02,-0.024l-0.02,-0.025l-0.02,-0.024l-0.022,-0.025l-0.021,-0.024l-0.021,-0.024l-0.021,-0.024l-0.022,-0.024l-0.022,-0.024l-0.022,-0.023l-0.022,-0.023l-0.023,-0.023l-0.023,-0.023l-0.023,-0.024l-0.022,-0.021l-0.024,-0.023l-0.025,-0.023l-0.023,-0.022l-0.024,-0.022l-0.023,-0.021l-0.05,-0.044l-0.05,-0.042l-0.051,-0.042l-0.052,-0.041l-0.052,-0.041l-0.054,-0.041l-0.055,-0.039l-0.056,-0.04l-0.056,-0.038l-0.057,-0.038l-0.057,-0.037l-0.06,-0.037l-0.059,-0.036l-0.06,-0.035l-0.062,-0.035l-0.062,-0.035l-0.063,-0.033l-0.064,-0.033l-0.065,-0.033l-0.065,-0.032l-0.066,-0.031l-0.068,-0.031l-0.068,-0.03l-0.069,-0.029l-0.07,-0.029l-0.071,-0.028l-0.072,-0.028l-0.072,-0.027l-0.073,-0.026l-0.075,-0.026l-0.075,-0.025l-0.076,-0.025l-0.077,-0.024l-0.078,-0.023l-0.079,-0.022l-0.079,-0.022l-0.08,-0.022l-0.082,-0.02l-0.082,-0.021l-0.083,-0.019l-0.084,-0.019l-0.085,-0.018l-0.085,-0.017l-0.087,-0.017l-0.088,-0.016l-0.088,-0.016l-0.089,-0.015l-0.09,-0.014l-0.091,-0.014l-0.092,-0.013l-0.093,-0.012l-0.094,-0.012l-0.094,-0.011l-0.096,-0.01l-0.096,-0.01l-0.097,-0.009l-0.098,-0.008l-0.099,-0.008l-0.1,-0.007l-0.101,-0.006l-0.101,-0.006l-0.103,-0.005l-0.103,-0.004l-0.104,-0.004l-0.106,-0.003l-0.106,-0.002l-0.106,-0.002l-0.108,-0.001l-0.109,0l-6.076,0Z" style="fill:#8c8c8c;"/><path d="M3943.04,8185.42l-19.614,0l0,10.251l17.069,0l0,5.987l-17.069,0l0,11.591l19.802,0l0,5.961l-27.076,0l0,-39.778l26.888,0l0,5.988Zm-26.507,-5.607l0,39.015l26.314,0l0,-5.198l-19.802,0l0,-12.353l17.069,0l0,-5.225l-17.069,0l0,-11.013l19.614,0l0,-5.226l-26.126,0Z" style="fill:#8c8c8c;"/><path d="M3978.66,8185.42l-11.79,0l0,33.79l-7.274,0l0,-33.79l-11.79,0l0,-5.988l30.854,0l0,5.988Zm-30.473,-5.607l0,5.226l11.79,0l0,33.789l6.512,0l0,-33.789l11.79,0l0,-5.226l-30.092,0Z" style="fill:#8c8c8c;"/><path d="M4014.69,8219.21l-7.436,0l-3.082,-9.111l-14.728,0l-3.108,9.111l-7.41,0l14.616,-39.778l6.696,0l14.452,39.778Zm-20.883,-39.397l-14.335,39.015l6.591,0l3.109,-9.11l15.273,0l3.082,9.11l6.619,0l-14.176,-39.015l-6.163,0Zm8.789,24.465l-11.549,0l5.735,-16.667l0.161,0l5.653,16.667Zm-11.014,-0.381l10.483,0l-5.205,-15.342l-5.278,15.342Z" style="fill:#8c8c8c;"/><path d="M4053.19,8219.21l-7.274,0l0,-32.826l-7.931,0l0,-5.523l15.205,-1.467l0,39.816Zm-14.824,-38.003l0,4.796l7.931,0l0,32.825l6.512,0l0,-39.015l-14.443,1.394Z" style="fill:#8c8c8c;"/></g><g transform="matrix(1.31512,0,0,1.31512,-225.803,-95.8367)"><text x="242.748px" y="357.665px" style="font-family:'UniSansRegular', 'Uni Sans';font-size:251.803px;fill:none;">K5</text><text x="242.748px" y="357.665px" style="font-family:'UniSansRegular', 'Uni Sans';font-size:251.803px;fill:#afafaf;stroke:#8c8c8c;stroke-width:0.76px;">K5</text></g></g></svg>