<?xml version="1.0" encoding="UTF-8" standalone="no"?><!DOCTYPE svg PUBLIC "-//W3C//DTD SVG 1.1//EN" "http://www.w3.org/Graphics/SVG/1.1/DTD/svg11.dtd"><svg width="100%" height="100%" viewBox="0 0 750 750" version="1.1" xmlns="http://www.w3.org/2000/svg" xmlns:xlink="http://www.w3.org/1999/xlink" xml:space="preserve" style="fill-rule:evenodd;clip-rule:evenodd;stroke-linejoin:round;stroke-miterlimit:1.41421;"><g id="K5-Key"><path d="M748.468,141.879c-0.017,-78.046 -63.394,-141.396 -141.439,-141.379l-465.15,0.101c-78.046,0.016 -141.396,63.393 -141.379,141.439l0.101,465.15c0.016,78.046 63.393,141.396 141.439,141.379l465.15,-0.101c78.046,-0.017 141.396,-63.394 141.379,-141.439l-0.101,-465.15Z" style="fill:#d9d9d9;stroke:#afafaf;stroke-width:1px;"/><path d="M705.504,102.817c-0.012,-56.482 -45.879,-102.328 -102.361,-102.316l-457.379,0.099c-56.482,0.012 -102.329,45.878 -102.317,102.36l0.099,457.38c0.012,56.482 45.879,102.328 102.361,102.316l457.379,-0.099c56.483,-0.012 102.329,-45.878 102.317,-102.36l-0.099,-457.38Z" style="fill:#fff;stroke:#afafaf;stroke-width:1px;"/><g transform="matrix(1.31512,0,0,1.31512,-224.868,-23.221)"><text x="242.748px" y="357.665px" style="font-family:'UniSansRegular', 'Uni Sans';font-size:251.803px;fill:none;">K5</text><text x="242.748px" y="357.665px" style="font-family:'UniSansRegular', 'Uni Sans';font-size:251.803px;fill:#afafaf;stroke:#8c8c8c;stroke-width:0.76px;">K5</text></g></g></svg>